<?xml version="1.0" encoding="UTF-8" standalone="no"?>
<svg
   version="1.0"
   width="623.798260pt"
   height="529.657426pt"
   viewBox="0 0 623.798260 529.657426"
   preserveAspectRatio="xMidYMid meet"
   id="svg1"
   sodipodi:docname="logo_ge_dark.svg"
   inkscape:version="1.3.2 (091e20e, 2023-11-25, custom)"
   xmlns:inkscape="http://www.inkscape.org/namespaces/inkscape"
   xmlns:sodipodi="http://sodipodi.sourceforge.net/DTD/sodipodi-0.dtd"
   xmlns="http://www.w3.org/2000/svg"
   xmlns:svg="http://www.w3.org/2000/svg">
  <defs
     id="defs1" />
  <sodipodi:namedview
     id="namedview1"
     pagecolor="#ffffff"
     bordercolor="#000000"
     borderopacity="0.25"
     inkscape:showpageshadow="2"
     inkscape:pageopacity="0.0"
     inkscape:pagecheckerboard="0"
     inkscape:deskcolor="#d1d1d1"
     inkscape:document-units="pt"
     inkscape:zoom="1.0255719"
     inkscape:cx="415.86552"
     inkscape:cy="353.46131"
     inkscape:window-width="1920"
     inkscape:window-height="991"
     inkscape:window-x="-9"
     inkscape:window-y="145"
     inkscape:window-maximized="1"
     inkscape:current-layer="svg1" />
  <metadata
     id="metadata1">
Created by potrace 1.12, written by Peter Selinger 2001-2015
</metadata>
  <g
     transform="translate(-191.220948,692.799376) scale(0.100000,-0.100000)"
     fill="#000000"
     stroke="none"
     id="g1">
    <path
       d="M4027 6924 c-6 -7 179 -104 197 -104 5 0 16 -8 25 -17 18 -20 41 -35 89 -60 17 -9 32 -20 32 -25 0 -4 4 -8 10 -8 9 0 42 -25 76 -57 7 -7 16 -13 19 -13 11 0 227 -221 260 -265 16 -22 37 -47 47 -56 10 -9 18 -21 18 -27 0 -6 3 -12 8 -14 4 -1 27 -34 51 -73 24 -38 51 -81 61 -95 9 -14 23 -40 31 -57 7 -18 17 -33 21 -33 5 0 8 -6 8 -12 0 -13 43 -126 61 -160 5 -10 9 -27 9 -37 0 -11 5 -23 10 -26 6 -3 10 -15 10 -26 0 -10 4 -27 10 -37 9 -17 21 -67 41 -167 6 -27 14 -98 18 -157 4 -59 10 -111 14 -114 4 -4 2 -13 -4 -21 -10 -11 -121 -13 -630 -13 l-619 1 -1 77 c-1 42 -1 80 0 85 0 4 -5 7 -12 7 -8 0 -7 4 3 10 10 6 11 10 3 10 -8 0 -13 13 -13 29 0 17 -4 32 -9 35 -4 3 -11 23 -15 45 -7 47 -71 177 -103 209 -13 13 -23 26 -23 30 0 12 -83 95 -125 127 -22 16 -42 31 -45 34 -3 4 -18 13 -35 21 -16 8 -32 17 -35 20 -10 10 -81 40 -95 40 -8 0 -15 5 -15 10 0 6 -13 10 -29 10 -17 0 -33 5 -36 10 -3 6 -21 10 -39 10 -18 0 -36 3 -40 7 -11 11 -34 13 -190 14 -91 0 -153 -4 -159 -10 -6 -6 -28 -11 -48 -11 -21 0 -41 -4 -44 -10 -3 -5 -16 -10 -29 -10 -12 0 -26 -4 -31 -8 -6 -5 -36 -17 -67 -27 -32 -11 -58 -23 -58 -27 0 -4 -9 -8 -20 -8 -11 0 -20 -3 -20 -8 0 -4 -15 -14 -32 -22 -18 -7 -37 -18 -43 -22 -43 -36 -57 -47 -81 -64 -15 -10 -34 -27 -43 -36 -49 -51 -105 -120 -138 -168 -20 -30 -42 -60 -48 -66 -6 -6 -26 -42 -45 -80 -19 -38 -38 -70 -42 -72 -5 -2 -8 -12 -8 -23 0 -10 -4 -19 -10 -19 -5 0 -10 -7 -10 -16 0 -9 -6 -30 -14 -47 -30 -70 -36 -89 -36 -107 0 -11 -4 -20 -9 -20 -5 0 -11 -15 -14 -32 -3 -18 -13 -69 -22 -113 -46 -225 -55 -329 -61 -690 -3 -190 -2 -313 5 -335 5 -19 11 -72 12 -117 1 -46 5 -83 9 -83 4 0 10 -28 13 -63 5 -63 10 -90 29 -162 5 -22 12 -55 15 -73 3 -18 9 -35 14 -38 5 -3 9 -16 9 -29 0 -13 5 -27 10 -30 6 -3 10 -15 10 -26 0 -10 4 -27 9 -37 21 -42 41 -94 41 -107 0 -8 5 -15 10 -15 6 0 10 -7 10 -16 0 -9 8 -28 19 -42 10 -15 26 -44 36 -64 9 -21 21 -38 26 -38 5 0 9 -7 9 -15 0 -8 5 -15 10 -15 6 0 10 -5 10 -11 0 -6 6 -17 13 -24 6 -8 26 -30 42 -51 58 -70 164 -169 203 -187 12 -5 22 -14 22 -19 0 -4 9 -8 20 -8 11 0 20 -4 20 -10 0 -5 8 -10 18 -10 10 0 22 -4 28 -9 5 -4 32 -16 59 -26 28 -9 59 -21 70 -25 22 -9 67 -18 130 -26 22 -3 50 -10 61 -16 35 -17 314 3 429 30 59 14 169 52 179 63 6 5 18 9 28 9 10 0 18 5 18 10 0 6 9 10 20 10 11 0 20 4 20 9 0 5 11 12 25 15 14 4 25 11 25 16 0 6 6 10 13 10 26 0 180 143 191 178 4 12 12 22 17 22 5 0 9 7 9 15 0 8 3 15 8 15 4 0 21 26 37 58 17 31 32 59 35 62 3 3 11 21 18 41 17 49 17 309 0 310 -7 1 -218 2 -468 3 -250 2 -462 6 -470 9 -13 6 -15 64 -15 447 0 288 4 443 11 450 7 7 345 9 1050 8 l1039 -3 0 -1345 c-1 -871 3 -1347 9 -1352 22 -15 -53 -18 -339 -16 l-300 3 -3 25 c-2 14 -6 32 -9 40 -3 8 -8 24 -10 35 -10 58 -35 180 -53 260 -18 82 -30 140 -36 178 l-7 38 -23 -35 c-13 -19 -24 -39 -24 -43 0 -5 -9 -15 -20 -23 -11 -8 -20 -19 -20 -26 0 -14 -134 -151 -185 -188 -22 -17 -42 -32 -45 -36 -14 -15 -79 -58 -107 -71 -18 -8 -33 -16 -33 -20 0 -3 -16 -11 -35 -19 -19 -8 -35 -17 -35 -22 0 -4 -5 -8 -11 -8 -6 0 -27 -7 -47 -16 -106 -46 -144 -59 -252 -85 -148 -35 -230 -49 -330 -57 -82 -7 -83 -8 -35 -14 75 -9 4948 -9 4963 0 10 7 12 111 10 488 l-3 479 -1017 3 -1018 2 0 600 0 600 815 0 815 0 0 480 0 480 -815 0 -815 0 0 595 0 595 1020 0 1020 0 -2 483 -3 482 -2056 3 c-1131 1 -2059 -1 -2062 -4z"
       id="path1"
       style="fill:#e6e6e6" />
  </g>
</svg>
