<?xml version="1.0" encoding="UTF-8"?><svg id="Warstwa_1" xmlns="http://www.w3.org/2000/svg" viewBox="0 0 838.6 231.13"><defs><style>.cls-1{fill:#ec6907;}</style></defs><path class="cls-1" d="M419.15,114.49c-3.19,3.07-7.19,3.29-11.43,3.29-3.86,0-7.71,0-11.56,0h-.48v-24.68h8.89c4.63,0,10.21,.24,14.11,3.08,3.29,2.39,4.13,5.76,4.13,9.69,0,3.49-1.13,6.21-3.66,8.62m-34.34-29.84v67.53h10.87v-26.14h12.6c7.17,0,13.46-.94,19.28-5.36,5.45-4.21,7.36-9.58,7.36-16.34,0-7.41-4.03-12.97-10.4-16.5-5.38-2.97-11.35-3.18-17.36-3.18h-22.34Zm87.1,39.06h-20.68l.25-.65c3.37-8.92,6.75-17.84,10.13-26.76l.46-1.21,.44,1.21c3.29,8.92,6.57,17.84,9.85,26.76l.22,.64h-.68Zm11.07,28.46h12.48c-8.78-22.51-17.54-45.01-26.32-67.53h-13.32c-8.84,22.51-17.7,45.02-26.54,67.53h11.35c2.44-6.63,4.89-13.26,7.33-19.89l.11-.31h27.58l.11,.31,7.22,19.89Zm54.21-39.57c-3.6,2.82-9.03,3.16-13.41,3.16h-7.31v-22.67h7.99c3.12,0,6.42,.26,9.38,1.29,3.8,1.32,6.93,4.95,6.93,9.09,0,3.29-.86,7.01-3.58,9.13m-31.93-27.96v67.53h11.09v-28.15l.54,.08c2.83,.37,6.1,2.15,8.04,4.17,4.86,5.07,9.38,10.56,13.63,16.15,1.93,2.53,3.86,5.12,5.65,7.75h13.02c-2.74-3.5-5.5-7-8.26-10.48-2.18-2.75-4.36-5.5-6.55-8.24-1.37-1.71-2.76-3.48-4.19-5.12-.82-.95-1.64-1.88-2.5-2.79-.7-.74-1.41-1.48-2.11-2.22l-.6-.62,.84-.18c.99-.21,2-.43,3-.64,9.27-1.98,15.47-8.65,15.47-18.31,0-6.14-3.11-11.14-8.08-14.55-5.63-3.92-13.38-4.37-20.03-4.37h-18.96Zm113.43,67.04c-10.22-11.52-20.45-23.06-30.67-34.59l-.6-.68,.65-.64c10.31-10.21,20.63-20.43,30.94-30.65h-13.1c-9.31,9.67-18.62,19.35-27.94,29.03l-1.65,1.71v-30.74h-10.24v66.56h10.24v-34.53l1.7,2c9.22,10.85,18.43,21.69,27.66,32.53h13.02Z"/><path class="cls-1" d="M51.62,104.52c3.7-3.81,7.42-7.63,11.12-11.44-.7-.52-1.41-1.05-2.13-1.57-7.23-5.34-15.95-7.68-24.88-7.68-6.98,0-13.05,1.28-19.13,4.73C4.91,95.22,0,105.88,0,119.13c0,9.19,2.21,16.74,8.5,23.54,7.12,7.78,16.61,10.33,26.93,10.33,8.96,0,17.64-1.86,25.67-5.88,.42-.21,.85-.43,1.27-.64v-33.85H28.44c.95,5.05,1.88,10.11,2.82,15.17h10.82v10.08l-.35,.09c-1.8,.52-3.7,.67-5.57,.67-3.42,0-7.27-.72-9.99-2.94-4.13-3.5-4.63-10.97-4.63-15.95,0-5.97,.28-14.14,5.35-18.26,2.45-1.98,5.99-2.59,9.06-2.59,5.27,0,9.74,1.46,14.07,4.48,.53,.37,1.07,.75,1.61,1.13m66.7-4.53c1.47-5.05,2.94-10.11,4.42-15.16h-47.32v67.46h47.67c-1.59-5.24-3.18-10.47-4.77-15.7h-22.95v-11.84h21.78v-15.17h-21.99v-9.59h23.16Zm46.05,52.3h16.16c3.42-10.05,6.85-20.1,10.27-30.15l.75-2.19,.19,2.3c.82,10.01,1.65,20.03,2.48,30.04h19.5c-2.36-22.49-4.73-44.97-7.09-67.46h-22.86c-3.45,10.76-6.9,21.51-10.35,32.27l-.47,1.45-.45-1.47c-3.31-10.75-6.63-21.5-9.94-32.26h-22.98c-2.48,22.48-4.95,44.97-7.43,67.46h19.74c.75-9.65,1.51-19.31,2.25-28.96l.2-2.45,.75,2.34c3.1,9.69,6.19,19.39,9.29,29.08m169.44,0h20.38V84.83h-20.38v67.46Zm-51.12-67.46h-20.31v67.46h19.25c-.15-9.75-.31-19.49-.47-29.23-.02-1.01-.04-2.02-.06-3.03l-.04-2.1,.95,1.86c1.23,2.43,2.49,4.84,3.76,7.24,4.43,8.42,8.87,16.83,13.3,25.25h19.41V84.83h-19.03c.12,9.35,.23,18.7,.35,28.05,0,.19,0,.39,.01,.59l.05,2.01-.96-1.77c-.47-.87-.95-1.75-1.42-2.62-4.93-8.76-9.87-17.51-14.81-26.27m-56.02,67.46h20.38V84.83h-20.38v67.46Z"/><path class="cls-1" d="M751.5,82.71c-3.07-.24-7.56-.9-9.29-3.85-2.18-3.7,.99-9.57,2.86-12.78,1.94-3.33,4.21-6.64,6.65-9.62,1.87-2.29,4.03-4.64,6.42-6.4,1.86-1.37,4.27-2.69,6.67-2.31,2.13,.33,4.3,2.08,5.78,3.57,2.09,2.06,3.89,4.61,5.26,7.21,1.26,2.38,2.28,5.04,2.68,7.72,.36,2.44,.2,5.01-.98,7.2-1.67,3.09-5.45,5.46-8.58,6.8-5.44,2.33-11.6,2.93-17.46,2.47"/><path class="cls-1" d="M676.44,110.68c-3.71-2.58-7.33-5.31-10.87-8.11-4.69-3.7-9.3-7.54-13.83-11.43-7.51-6.44-14.91-13.02-22.15-19.76-3.94-3.66-7.84-7.38-11.64-11.18-3.29-3.29-6.55-6.66-9.61-10.16-1.92-2.22-4.01-4.71-5.5-7.24-.7-1.19-1.93-3.45-.99-4.79,.17-.25,.41-.44,.67-.58,3.21-1.69,16.6,3.33,19.83,4.55,5.56,2.09,11.05,4.43,16.46,6.89,6.09,2.78,12.11,5.74,18.01,8.89,5.89,3.14,11.7,6.46,17.32,10.05,5.01,3.2,9.97,6.65,14.53,10.48,1.29,1.08,2.56,2.22,3.79,3.38,1.9-6.29,4.05-12.52,6.3-18.7,3.27-9,6.75-17.98,10.44-26.83,1.97-4.73,4-9.44,6.15-14.1,1.87-4.04,3.82-8.08,5.99-11.97,1.4-2.52,3.03-5.29,4.9-7.5,.94-1.1,2.65-2.92,4.29-2.52,.23,.05,.45,.16,.65,.29,3.07,2.07,3.7,15.49,3.86,18.86,.25,5.6,.23,11.24,.04,16.84-.2,6.31-.64,12.62-1.3,18.91-.64,6.07-1.5,12.14-2.69,18.14-1.05,5.39-2.38,10.83-4.2,16.02-.16,.42-.31,.84-.46,1.27,5.61,.38,11.34,1.38,16.83,2.5,8.38,1.69,16.71,3.82,24.96,6.05,9.91,2.7,19.8,5.59,29.59,8.67,5.24,1.65,10.48,3.36,15.66,5.18,4.5,1.58,9,3.26,13.38,5.13,2.86,1.22,5.97,2.62,8.57,4.31,1.17,.77,3.42,2.34,3.14,3.99-.03,.22-.11,.42-.22,.62-1.86,3.07-16.48,4.24-19.76,4.51-5.99,.48-12.03,.7-18.03,.76-6.79,.06-13.59-.09-20.38-.46-6.34-.35-12.68-.9-18.98-1.74-5.69-.76-11.42-1.76-16.99-3.21-.75-.22-1.52-.43-2.28-.64,1.04,4.75,1.71,9.64,2.24,14.47,.77,6.97,1.23,13.99,1.57,20.99,.45,9.46,.7,18.96,.73,28.43,.02,5.11-.04,10.22-.23,15.33-.16,4.42-.4,8.89-.91,13.29-.31,2.81-.75,5.94-1.61,8.63-.45,1.37-1.31,3.64-2.95,3.91-.28,.04-.56,.03-.83-.04-1.66-.43-4.23-4.43-5.12-5.8-2.79-4.32-5.3-8.98-7.66-13.55-3.24-6.24-6.29-12.58-9.21-18.96-3.32-7.23-6.47-14.52-9.47-21.89-2.4-5.89-4.69-11.82-6.84-17.8-1.87-5.2-3.63-10.45-5.2-15.74-4.68,6.16-9.7,12.11-14.77,17.93-2.93,3.36-5.98,6.62-9.12,9.78-3.53,3.56-7.18,7-10.96,10.28-3.29,2.86-6.73,5.65-10.32,8.12-2.42,1.67-11.01,7.61-13.71,3.94-1.33-1.83-.88-5.99-.58-8.08,.68-4.69,2.09-9.55,3.62-14.03,2.04-5.96,4.54-11.83,7.35-17.46,3.14-6.28,6.72-12.38,10.78-18.1,1.91-2.7,3.93-5.31,6.07-7.83,3.47-4.07,7.44-7.89,11.66-11.2"/><path class="cls-1" d="M672.23,16.75c2.84-1.39,6.82-2.95,9.92-1.44,3.99,1.95,4.89,8.34,5.27,12.23,.58,5.92,1.19,22.72-5.57,25.39-2.01,.79-4.93,.36-6.97-.13-2.99-.72-6.01-1.99-8.69-3.5-4.2-2.38-9.5-6.55-10.17-11.69-.45-3.41,1.25-7.3,3.11-10.06,3.19-4.73,8.02-8.31,13.1-10.81"/><path class="cls-1" d="M607.08,210.64v-12.18l10.67-16.85h-6.75l-6.69,11.48-6.83-11.48h-6.87l10.63,16.81v12.22h5.84Zm-47.41,0v-12.69h11.48v12.69h5.86v-29.03h-5.86v11.42h-11.48v-11.42h-5.86v29.03h5.86Zm-29.55-6c-1.12,.99-2.46,1.49-4.02,1.49-2.11,0-3.83-.78-5.15-2.34-1.32-1.56-1.98-4.17-1.98-7.84,0-3.46,.67-5.96,2.01-7.5,1.34-1.54,3.08-2.32,5.24-2.32,1.56,0,2.88,.44,3.97,1.31s1.8,2.06,2.15,3.56l5.8-1.39c-.66-2.32-1.65-4.1-2.97-5.35-2.22-2.1-5.1-3.15-8.65-3.15-4.07,0-7.35,1.34-9.84,4.01s-3.74,6.42-3.74,11.26c0,4.57,1.24,8.17,3.72,10.8,2.48,2.63,5.65,3.95,9.5,3.95,3.11,0,5.69-.77,7.71-2.31,2.03-1.54,3.47-3.89,4.35-7.06l-5.68-1.8c-.49,2.12-1.29,3.68-2.41,4.67m-40.28,6v-12.18l10.67-16.85h-6.75l-6.69,11.48-6.83-11.48h-6.87l10.63,16.81v12.22h5.84Zm-35.81,0v-24.12h8.59v-4.91h-23.07v4.91h8.61v24.12h5.86Z"/></svg>