<?xml version="1.0" encoding="UTF-8" standalone="no"?>
<svg
   width="200"
   height="123.71171"
   viewBox="0 0 15.42048 9.5384696"
   version="1.1"
   id="svg2"
   sodipodi:docname="logo_audi_dark.svg"
   inkscape:version="1.3.2 (091e20e, 2023-11-25, custom)"
   xmlns:inkscape="http://www.inkscape.org/namespaces/inkscape"
   xmlns:sodipodi="http://sodipodi.sourceforge.net/DTD/sodipodi-0.dtd"
   xmlns="http://www.w3.org/2000/svg"
   xmlns:svg="http://www.w3.org/2000/svg">
  <defs
     id="defs2" />
  <sodipodi:namedview
     id="namedview2"
     pagecolor="#ffffff"
     bordercolor="#000000"
     borderopacity="0.25"
     inkscape:showpageshadow="2"
     inkscape:pageopacity="0.0"
     inkscape:pagecheckerboard="0"
     inkscape:deskcolor="#d1d1d1"
     inkscape:zoom="1.699319"
     inkscape:cx="195.07814"
     inkscape:cy="118.87115"
     inkscape:window-width="1920"
     inkscape:window-height="1020"
     inkscape:window-x="2566"
     inkscape:window-y="90"
     inkscape:window-maximized="0"
     inkscape:current-layer="svg2" />
  <path
     d="m 12.993199,9.4709959 v -2.047184 h -0.844863 v 2.047184 z M 8.520401,8.6209569 V 7.4547849 H 7.70151 v 0.891453 c 0,0.259101 -0.01035,0.331751 -0.02588,0.399136 -0.05703,0.186626 -0.254012,0.269367 -0.45608,0.269367 -0.279808,0 -0.409402,-0.1088 -0.461257,-0.279808 -0.01553,-0.05686 -0.02071,-0.119065 -0.02588,-0.181274 -0.0052,-0.06738 0,-0.140035 0,-0.217599 V 7.4548719 H 5.90316 v 1.171349 c 0,0.264453 0.08818,0.461345 0.233217,0.596028 0.248747,0.243658 0.66859,0.316221 1.057285,0.316221 0.47161,0 0.834422,-0.06739 1.093522,-0.32131 0.134859,-0.129682 0.233217,-0.30069 0.233217,-0.596203 z M 4.498594,8.4758319 a 0.69666747,0.69666747 0 0 0 -0.12433,-0.01026 H 3.441397 c -0.04668,0 -0.09853,0.0052 -0.124418,0.01026 0.01553,-0.01562 0.04668,-0.04659 0.07774,-0.08809 l 0.419756,-0.694562 c 0.05703,-0.09318 0.08291,-0.15539 0.09327,-0.181274 0.01035,0.02588 0.03624,0.08809 0.09327,0.186626 l 0.430197,0.699739 c 0.02079,0.03097 0.05186,0.06195 0.06739,0.07756 z M 6.063815,9.4709959 4.197992,6.6723939 H 3.151148 l 0.274631,0.326486 c 0.0052,0.0052 0.01562,0.01026 0.02588,0.01562 -0.01035,0.0052 -0.02071,0.01027 -0.02588,0.01544 L 1.798437,9.4709959 H 2.741658 L 2.99567,9.0511529 c 0.01035,-0.02071 0.01553,-0.0415 0.01553,-0.05177 0.01035,0 0.03632,0.01027 0.06221,0.01027 h 1.684374 c 0.02588,0 0.04659,-0.0052 0.05694,-0.01027 a 0.0701932,0.0701932 0 0 0 0.01035,0.0415 l 0.264365,0.430108 z m 5.856569,-1.05202 c 0,-0.228128 -0.09336,-0.492493 -0.383518,-0.860481 l -0.699738,-0.886189 h -0.97437 l 0.554526,0.621912 c 0.09336,0.10371 0.21251,0.196892 0.21251,0.196892 -0.134683,-0.07783 -0.305691,-0.1088 -0.440462,-0.1088 -0.321309,0 -0.647971,0.06739 -0.938044,0.228128 -0.311044,0.170833 -0.518377,0.455992 -0.518377,0.834422 0,0.290161 0.129594,0.513112 0.295426,0.68412 0.373252,0.373077 1.05202,0.409402 1.300855,0.409402 0.3679,0 0.943221,-0.08292 1.269883,-0.378342 0.191803,-0.176272 0.321309,-0.419755 0.321309,-0.741064 z m -0.808538,0.02588 c 0,0.212509 -0.140035,0.373076 -0.31622,0.461169 -0.145125,0.07783 -0.316221,0.09853 -0.466434,0.09853 -0.150213,0 -0.326486,-0.03115 -0.471611,-0.103711 -0.176184,-0.08809 -0.311043,-0.259101 -0.311043,-0.445727 0,-0.222775 0.171008,-0.399136 0.373252,-0.487228 0.124418,-0.05686 0.274719,-0.07765 0.393784,-0.07765 0.114152,0 0.279983,0.01544 0.409577,0.06739 0.233305,0.09836 0.388695,0.284984 0.388695,0.487229 z M 12.724798,3.8572751e-6 A 2.6834859,2.6834859 0 0 0 11.053235,0.58076486 2.6831349,2.6831349 0 0 0 9.381672,3.8572751e-6 2.6837491,2.6837491 0 0 0 7.710196,0.58076486 2.6826085,2.6826085 0 0 0 6.038721,3.8572751e-6 2.6837491,2.6837491 0 0 0 4.367245,0.58076486 2.6835736,2.6835736 0 0 0 2.69577,3.8572751e-6 C 1.2067088,3.8572751e-6 0,1.2066249 0,2.6957739 c 0,1.488973 1.206621,2.695769 2.69577,2.695769 a 2.6838368,2.6838368 0 0 0 1.671475,-0.580761 2.6835736,2.6835736 0 0 0 1.671476,0.580761 2.682784,2.682784 0 0 0 1.671475,-0.580761 2.6837491,2.6837491 0 0 0 1.671476,0.580761 2.6832227,2.6832227 0 0 0 1.671563,-0.580761 2.6832227,2.6832227 0 0 0 1.671563,0.580761 c 1.489061,0 2.695682,-1.206709 2.695682,-2.695769 0,-1.489061 -1.206621,-2.6957700427249 -2.695682,-2.6957700427249 z M 3.926169,4.3704079 c -0.343508,0.250589 -0.772652,0.403523 -1.230399,0.403523 -1.148712,0 -2.0782454,-0.929446 -2.0782454,-2.078157 0,-1.148712 0.9295334,-2.07824504 2.0782454,-2.07824504 0.457747,0 0.886627,0.153021 1.230399,0.40369804 a 2.6798885,2.6798885 0 0 0 -0.58313,1.674547 2.6998058,2.6998058 0 0 0 0.58313,1.674634 z m 0.441164,-0.439848 a 2.065698,2.065698 0 0 1 -0.406682,-1.234786 2.0621884,2.0621884 0 0 1 0.406682,-1.234786 2.062978,2.062978 0 0 1 0.406682,1.234786 2.0661367,2.0661367 0 0 1 -0.406682,1.234786 z m 2.901874,0.439848 a 2.0693832,2.0693832 0 0 1 -1.23189,0.402909 2.0630658,2.0630658 0 0 1 -1.228995,-0.402909 2.6990161,2.6990161 0 0 0 0.58313,-1.674547 2.6798885,2.6798885 0 0 0 -0.58313,-1.674546 2.0623638,2.0623638 0 0 1 1.228995,-0.40299704 c 0.461081,0 0.887066,0.149161 1.23189,0.40299704 a 2.6798885,2.6798885 0 0 0 -0.58313,1.674546 2.6991916,2.6991916 0 0 0 0.58313,1.674547 z m 0.440989,-0.439848 a 2.065698,2.065698 0 0 1 -0.406682,-1.234786 2.0628025,2.0628025 0 0 1 0.406682,-1.234786 2.0624516,2.0624516 0 0 1 0.40677,1.234786 2.0656103,2.0656103 0 0 1 -0.40677,1.234786 z m 2.901962,0.439848 c -0.344824,0.253924 -0.770809,0.402909 -1.231803,0.402909 -0.460993,0 -0.884258,-0.149249 -1.229082,-0.402909 a 2.6984897,2.6984897 0 0 0 0.58313,-1.674547 2.6798885,2.6798885 0 0 0 -0.58313,-1.674546 C 8.496097,0.76756586 8.919362,0.61831786 9.380355,0.61831786 c 0.460994,0 0.886979,0.149161 1.231803,0.40299704 a 2.6805027,2.6805027 0 0 0 -0.58313,1.674546 2.6998058,2.6998058 0 0 0 0.58313,1.674547 z m 0.441165,-0.439848 a 2.065698,2.065698 0 0 1 -0.406682,-1.234786 2.0616619,2.0616619 0 0 1 0.406682,-1.234786 2.062978,2.062978 0 0 1 0.406681,1.234786 2.0666632,2.0666632 0 0 1 -0.406681,1.234786 z m 1.671475,0.843371 c -0.457923,0 -0.886979,-0.152934 -1.230399,-0.403523 a 2.6995426,2.6995426 0 0 0 0.58313,-1.674547 2.6805027,2.6805027 0 0 0 -0.58313,-1.674546 c 0.343771,-0.25059004 0.772564,-0.40369904 1.230399,-0.40369904 1.148536,0 2.078245,0.92953404 2.078245,2.07824504 0,1.148536 -0.929709,2.07807 -2.078245,2.07807 z"
     id="path2"
     style="clip-rule:evenodd;fill-rule:evenodd;stroke-width:0.0877415;fill:#e6e6e6" />
</svg>
