<?xml version="1.0" encoding="UTF-8" standalone="no"?>
<!-- Generator: Adobe Illustrator 22.0.1, SVG Export Plug-In . SVG Version: 6.00 Build 0)  -->

<svg
   version="1.1"
   id="Ebene_1"
   x="0px"
   y="0px"
   viewBox="0 0 283.50001 43.3"
   xml:space="preserve"
   sodipodi:docname="logo_hl_dark.svg"
   width="283.5"
   height="43.299999"
   inkscape:version="1.3.2 (091e20e, 2023-11-25, custom)"
   xmlns:inkscape="http://www.inkscape.org/namespaces/inkscape"
   xmlns:sodipodi="http://sodipodi.sourceforge.net/DTD/sodipodi-0.dtd"
   xmlns="http://www.w3.org/2000/svg"
   xmlns:svg="http://www.w3.org/2000/svg"><defs
   id="defs9" /><sodipodi:namedview
   id="namedview9"
   pagecolor="#ffffff"
   bordercolor="#000000"
   borderopacity="0.25"
   inkscape:showpageshadow="2"
   inkscape:pageopacity="0.0"
   inkscape:pagecheckerboard="0"
   inkscape:deskcolor="#d1d1d1"
   inkscape:zoom="0.89204973"
   inkscape:cx="127.23506"
   inkscape:cy="19.61774"
   inkscape:window-width="1920"
   inkscape:window-height="991"
   inkscape:window-x="-9"
   inkscape:window-y="145"
   inkscape:window-maximized="1"
   inkscape:current-layer="Ebene_1" />
<style
   type="text/css"
   id="style1">
	.st0{fill:#033572;}
	.st1{fill-rule:evenodd;clip-rule:evenodd;}
</style>
<g
   id="g9"
   transform="translate(-155,-276.3)"
   style="fill:#f9f9f9">
	<polygon
   class="st0"
   points="179.3,296 182.4,296 194.3,276.3 213.4,276.3 201.6,296 214.8,296 209.5,304.8 196.2,304.8 206.6,319 187.5,319 177.2,304.8 173.9,304.8 184.2,319 165.3,319 155,304.8 172.2,276.3 191.2,276.3 "
   id="polygon1"
   style="fill:#f9f9f9" />
	<polygon
   points="243.5,300.8 254.3,300.8 254.3,312.3 260.2,312.3 260.2,285.6 254.3,285.6 254.3,295.9 243.5,295.9 243.5,285.6 237.7,285.6 237.7,312.3 243.5,312.3 "
   id="polygon2"
   style="fill:#f9f9f9" />
	<path
   class="st1"
   d="m 274.4,304.8 c 0,1.2 -0.1,4.4 -4.3,4.4 -1.7,0 -3.2,-0.5 -3.2,-2.5 0,-1.9 1.5,-2.5 3.1,-2.8 1.6,-0.3 3.5,-0.3 4.4,-1.1 z m -6.9,-5.9 c 0.2,-2.1 1.5,-2.9 3.5,-2.9 1.9,0 3.4,0.3 3.4,2.6 0,2.2 -3,2.1 -6.3,2.5 -3.3,0.4 -6.6,1.5 -6.6,5.9 0,4 2.9,5.8 6.6,5.8 2.4,0 4.8,-0.6 6.5,-2.4 0,0.6 0.2,1.3 0.4,1.9 h 5.4 c -0.5,-0.8 -0.7,-2.5 -0.7,-4.3 v -10 c 0,-4.6 -4.6,-5.5 -8.5,-5.5 -4.3,0 -8.8,1.5 -9.1,6.5 h 5.4 z"
   id="path2"
   style="fill:#f9f9f9" />
	<path
   class="st1"
   d="m 281.4,319.1 h 5.3 v -9.2 h 0.1 c 1.3,1.9 3.5,2.9 5.8,2.9 5.6,0 8.5,-4.8 8.5,-10 0,-5.5 -2.7,-10.4 -8.8,-10.4 -2.4,0 -4.5,0.9 -5.8,3 h -0.1 V 293 h -5 z m 9.8,-10.3 c -3.4,0 -4.6,-3 -4.6,-6.1 0,-3.1 1.1,-6.2 4.6,-6.2 3.4,0 4.6,3.2 4.6,6.2 0,3.2 -1.1,6.1 -4.6,6.1 z"
   id="path3"
   style="fill:#f9f9f9" />
	<path
   class="st1"
   d="m 314.7,304.8 c 0,1.2 -0.1,4.4 -4.3,4.4 -1.7,0 -3.2,-0.5 -3.2,-2.5 0,-1.9 1.5,-2.5 3.1,-2.8 1.6,-0.3 3.5,-0.3 4.4,-1.1 z m -7,-5.9 c 0.2,-2.1 1.5,-2.9 3.5,-2.9 1.9,0 3.4,0.3 3.4,2.6 0,2.2 -3,2.1 -6.3,2.5 -3.3,0.4 -6.6,1.5 -6.6,5.9 0,4 2.9,5.8 6.6,5.8 2.4,0 4.8,-0.6 6.5,-2.4 0,0.6 0.2,1.3 0.4,1.9 h 5.4 c -0.5,-0.8 -0.7,-2.5 -0.7,-4.3 v -10 c 0,-4.6 -4.6,-5.5 -8.5,-5.5 -4.3,0 -8.8,1.5 -9.1,6.5 h 5.4 z"
   id="path4"
   style="fill:#f9f9f9" />
	<path
   class="st1"
   d="m 341,293 h -5 v 2.6 h -0.1 c -1.3,-2.2 -3.2,-3.1 -5.8,-3.1 -5.4,0 -8.3,4.6 -8.3,9.6 0,5.3 2.5,9.7 8.3,9.7 2.3,0 4.6,-1 5.8,-3 h 0.1 v 2.5 c 0,2.8 -1.3,4.8 -4.3,4.8 -1.9,0 -3.5,-0.7 -4,-2.7 h -5.3 c 0.3,4.4 4.7,6.2 8.5,6.2 8.9,0 10,-5.4 10,-8.6 v -18 z m -9.6,14.8 c -3.2,0 -4.3,-3 -4.3,-5.8 0,-2.9 1.3,-5.5 4.3,-5.5 3.4,0 4.5,2.8 4.5,5.9 0,2.8 -1.4,5.4 -4.5,5.4 z"
   id="path5"
   style="fill:#f9f9f9" />
	<polygon
   points="353.7,299.8 342.4,299.8 342.4,304.4 353.7,304.4 "
   id="polygon5"
   style="fill:#f9f9f9" />
	<polygon
   points="374,307.4 361,307.4 361,285.6 355.1,285.6 355.1,312.3 374,312.3 "
   id="polygon6"
   style="fill:#f9f9f9" />
	<polygon
   points="380.5,285.6 375.2,285.6 375.2,312.3 380.5,312.3 "
   id="polygon7"
   style="fill:#f9f9f9" />
	<path
   class="st1"
   d="m 381.7,302.7 c 0,6.1 3.9,10.2 10,10.2 6.1,0 10,-4 10,-10.2 0,-6.2 -3.9,-10.2 -10,-10.2 -6.1,0 -10,4 -10,10.2 z m 5.3,0 c 0,-3.1 1.1,-6.2 4.7,-6.2 3.6,0 4.7,3.1 4.7,6.2 0,3.1 -1.1,6.2 -4.7,6.2 -3.6,-0.1 -4.7,-3.2 -4.7,-6.2 z"
   id="path7"
   style="fill:#f9f9f9" />
	<path
   d="m 420.3,293 h -5.5 l -4.2,13.2 h -0.1 L 406.1,293 h -5.7 l 6.8,18.1 c 0.6,1.5 0,3.4 -1.8,3.6 -1,0 -2.1,-0.1 -3.1,-0.2 v 4.4 c 1.1,0.1 2.2,0.2 3.2,0.2 3.7,0 5.5,-1.3 6.6,-4.4 z"
   id="path8"
   style="fill:#f9f9f9" />
	<path
   class="st1"
   d="m 433.5,312.3 h 5 v -26.7 h -5.3 v 9.7 h -0.1 v 0 c -1.2,-1.9 -3.5,-2.9 -5.8,-2.9 -5.7,0 -8.6,4.8 -8.6,10 0,5.3 2.8,10.3 8.7,10.3 2.5,0 4.6,-0.9 5.9,-3 h 0.1 v 2.6 z m -0.1,-9.7 c 0,3.2 -1,6.2 -4.6,6.2 -3.3,0 -4.7,-3.2 -4.7,-6.2 0,-3.2 1.2,-6.2 4.7,-6.2 3.5,0.1 4.6,3.1 4.6,6.2 z"
   id="path9"
   style="fill:#f9f9f9" />
</g>
</svg>
