<?xml version="1.0" encoding="UTF-8" standalone="no"?>
<!-- Created with Inkscape (http://www.inkscape.org/) -->

<svg
   width="97.76519mm"
   height="23.908737mm"
   viewBox="0 0 97.76519 23.908737"
   version="1.1"
   id="svg1"
   inkscape:version="1.3.2 (091e20e, 2023-11-25, custom)"
   sodipodi:docname="logo_kul_dark.svg"
   xmlns:inkscape="http://www.inkscape.org/namespaces/inkscape"
   xmlns:sodipodi="http://sodipodi.sourceforge.net/DTD/sodipodi-0.dtd"
   xmlns="http://www.w3.org/2000/svg"
   xmlns:svg="http://www.w3.org/2000/svg">
  <sodipodi:namedview
     id="namedview1"
     pagecolor="#ffffff"
     bordercolor="#000000"
     borderopacity="0.25"
     inkscape:showpageshadow="2"
     inkscape:pageopacity="0.0"
     inkscape:pagecheckerboard="0"
     inkscape:deskcolor="#d1d1d1"
     inkscape:document-units="mm"
     inkscape:zoom="0.66903058"
     inkscape:cx="123.31275"
     inkscape:cy="151.71205"
     inkscape:window-width="1920"
     inkscape:window-height="991"
     inkscape:window-x="-9"
     inkscape:window-y="145"
     inkscape:window-maximized="1"
     inkscape:current-layer="layer1" />
  <defs
     id="defs1">
    <clipPath
       clipPathUnits="userSpaceOnUse"
       id="clipPath2">
      <path
         d="M 0,208 H 377 V 0 H 0 Z"
         transform="translate(-229.99761,-140.1504)"
         id="path2" />
    </clipPath>
    <clipPath
       clipPathUnits="userSpaceOnUse"
       id="clipPath4">
      <path
         d="M 0,208 H 377 V 0 H 0 Z"
         transform="translate(-317.22171,-114.6973)"
         id="path4" />
    </clipPath>
    <clipPath
       clipPathUnits="userSpaceOnUse"
       id="clipPath6">
      <path
         d="M 0,208 H 377 V 0 H 0 Z"
         transform="translate(-321.92581,-123.353)"
         id="path6" />
    </clipPath>
    <clipPath
       clipPathUnits="userSpaceOnUse"
       id="clipPath8">
      <path
         d="M 0,208 H 377 V 0 H 0 Z"
         transform="translate(-317.22171,-129.1768)"
         id="path8" />
    </clipPath>
    <clipPath
       clipPathUnits="userSpaceOnUse"
       id="clipPath10">
      <path
         d="M 0,208 H 377 V 0 H 0 Z"
         transform="translate(-318.14941,-139.9287)"
         id="path10" />
    </clipPath>
    <clipPath
       clipPathUnits="userSpaceOnUse"
       id="clipPath12">
      <path
         d="M 0,208 H 377 V 0 H 0 Z"
         id="path12" />
    </clipPath>
    <clipPath
       clipPathUnits="userSpaceOnUse"
       id="clipPath14">
      <path
         d="M 0,208 H 377 V 0 H 0 Z"
         transform="translate(-266.1895,-96.1328)"
         id="path14" />
    </clipPath>
    <clipPath
       clipPathUnits="userSpaceOnUse"
       id="clipPath16">
      <path
         d="M 0,208 H 377 V 0 H 0 Z"
         transform="translate(-325.37301,-88.861302)"
         id="path16" />
    </clipPath>
    <clipPath
       clipPathUnits="userSpaceOnUse"
       id="clipPath18">
      <path
         d="M 0,208 H 377 V 0 H 0 Z"
         id="path18" />
    </clipPath>
    <clipPath
       clipPathUnits="userSpaceOnUse"
       id="clipPath20">
      <path
         d="M 0,208 H 377 V 0 H 0 Z"
         transform="translate(-104.36181,-140.1938)"
         id="path20" />
    </clipPath>
    <clipPath
       clipPathUnits="userSpaceOnUse"
       id="clipPath22">
      <path
         d="M 0,208 H 377 V 0 H 0 Z"
         transform="translate(-117.5181,-137.6055)"
         id="path22" />
    </clipPath>
    <clipPath
       clipPathUnits="userSpaceOnUse"
       id="clipPath24">
      <path
         d="M 0,208 H 377 V 0 H 0 Z"
         transform="translate(-128.5723,-136.418)"
         id="path24" />
    </clipPath>
    <clipPath
       clipPathUnits="userSpaceOnUse"
       id="clipPath26">
      <path
         d="M 0,208 H 377 V 0 H 0 Z"
         transform="translate(-138.8677,-127.23241)"
         id="path26" />
    </clipPath>
    <clipPath
       clipPathUnits="userSpaceOnUse"
       id="clipPath28">
      <path
         d="M 0,208 H 377 V 0 H 0 Z"
         id="path28" />
    </clipPath>
    <clipPath
       clipPathUnits="userSpaceOnUse"
       id="clipPath30">
      <path
         d="M 0,208 H 377 V 0 H 0 Z"
         transform="translate(-148.7935,-135.9512)"
         id="path30" />
    </clipPath>
    <clipPath
       clipPathUnits="userSpaceOnUse"
       id="clipPath32">
      <path
         d="M 0,208 H 377 V 0 H 0 Z"
         id="path32" />
    </clipPath>
    <clipPath
       clipPathUnits="userSpaceOnUse"
       id="clipPath34">
      <path
         d="M 0,208 H 377 V 0 H 0 Z"
         id="path34" />
    </clipPath>
    <clipPath
       clipPathUnits="userSpaceOnUse"
       id="clipPath36">
      <path
         d="M 0,208 H 377 V 0 H 0 Z"
         transform="translate(-55.279301,-122.6177)"
         id="path36" />
    </clipPath>
    <clipPath
       clipPathUnits="userSpaceOnUse"
       id="clipPath38">
      <path
         d="M 0,208 H 377 V 0 H 0 Z"
         transform="translate(-67.656701,-109.6558)"
         id="path38" />
    </clipPath>
    <clipPath
       clipPathUnits="userSpaceOnUse"
       id="clipPath40">
      <path
         d="M 0,208 H 377 V 0 H 0 Z"
         id="path40" />
    </clipPath>
    <clipPath
       clipPathUnits="userSpaceOnUse"
       id="clipPath42">
      <path
         d="M 0,208 H 377 V 0 H 0 Z"
         transform="translate(-96.440905,-122.6177)"
         id="path42" />
    </clipPath>
    <clipPath
       clipPathUnits="userSpaceOnUse"
       id="clipPath44">
      <path
         d="M 0,208 H 377 V 0 H 0 Z"
         transform="translate(-105.95751,-109.6558)"
         id="path44" />
    </clipPath>
    <clipPath
       clipPathUnits="userSpaceOnUse"
       id="clipPath46">
      <path
         d="M 0,208 H 377 V 0 H 0 Z"
         transform="translate(-115.689,-109.6558)"
         id="path46" />
    </clipPath>
    <clipPath
       clipPathUnits="userSpaceOnUse"
       id="clipPath48">
      <path
         d="M 0,208 H 377 V 0 H 0 Z"
         transform="translate(-129.25341,-113.2954)"
         id="path48" />
    </clipPath>
    <clipPath
       clipPathUnits="userSpaceOnUse"
       id="clipPath50">
      <path
         d="M 0,208 H 377 V 0 H 0 Z"
         transform="translate(-141.00831,-122.6177)"
         id="path50" />
    </clipPath>
    <clipPath
       clipPathUnits="userSpaceOnUse"
       id="clipPath52">
      <path
         d="M 0,208 H 377 V 0 H 0 Z"
         transform="translate(-151.7124,-120.02881)"
         id="path52" />
    </clipPath>
    <clipPath
       clipPathUnits="userSpaceOnUse"
       id="clipPath54">
      <path
         d="M 0,208 H 377 V 0 H 0 Z"
         transform="translate(-161.36571,-109.6558)"
         id="path54" />
    </clipPath>
    <clipPath
       clipPathUnits="userSpaceOnUse"
       id="clipPath56">
      <path
         d="M 0,208 H 377 V 0 H 0 Z"
         transform="translate(-172.459,-120.02881)"
         id="path56" />
    </clipPath>
    <clipPath
       clipPathUnits="userSpaceOnUse"
       id="clipPath58">
      <path
         d="M 0,208 H 377 V 0 H 0 Z"
         transform="translate(-101.0146,-92.079605)"
         id="path58" />
    </clipPath>
    <clipPath
       clipPathUnits="userSpaceOnUse"
       id="clipPath60">
      <path
         d="M 0,208 H 377 V 0 H 0 Z"
         transform="translate(-109.1304,-105.0415)"
         id="path60" />
    </clipPath>
    <clipPath
       clipPathUnits="userSpaceOnUse"
       id="clipPath62">
      <path
         d="M 0,208 H 377 V 0 H 0 Z"
         transform="translate(-123.7656,-95.173805)"
         id="path62" />
    </clipPath>
    <clipPath
       clipPathUnits="userSpaceOnUse"
       id="clipPath64">
      <path
         d="M 0,208 H 377 V 0 H 0 Z"
         transform="translate(-133.76901,-92.079605)"
         id="path64" />
    </clipPath>
    <clipPath
       clipPathUnits="userSpaceOnUse"
       id="clipPath66">
      <path
         d="M 0,208 H 377 V 0 H 0 Z"
         transform="translate(-144.0645,-92.079605)"
         id="path66" />
    </clipPath>
    <clipPath
       clipPathUnits="userSpaceOnUse"
       id="clipPath68">
      <path
         d="M 0,208 H 377 V 0 H 0 Z"
         transform="translate(-154.2622,-95.719205)"
         id="path68" />
    </clipPath>
    <clipPath
       clipPathUnits="userSpaceOnUse"
       id="clipPath70">
      <path
         d="M 0,208 H 377 V 0 H 0 Z"
         id="path70" />
    </clipPath>
    <clipPath
       clipPathUnits="userSpaceOnUse"
       id="clipPath72">
      <path
         d="M 0,208 H 377 V 0 H 0 Z"
         id="path72" />
    </clipPath>
    <clipPath
       clipPathUnits="userSpaceOnUse"
       id="clipPath74">
      <path
         d="M 0,208 H 377 V 0 H 0 Z"
         transform="translate(-65.438501,-87.5444)"
         id="path74" />
    </clipPath>
    <clipPath
       clipPathUnits="userSpaceOnUse"
       id="clipPath76">
      <path
         d="M 0,208 H 377 V 0 H 0 Z"
         transform="translate(-74.779802,-87.5444)"
         id="path76" />
    </clipPath>
    <clipPath
       clipPathUnits="userSpaceOnUse"
       id="clipPath78">
      <path
         d="M 0,208 H 377 V 0 H 0 Z"
         transform="translate(-87.062005,-76.022899)"
         id="path78" />
    </clipPath>
    <clipPath
       clipPathUnits="userSpaceOnUse"
       id="clipPath80">
      <path
         d="M 0,208 H 377 V 0 H 0 Z"
         transform="translate(-96.957505,-87.5444)"
         id="path80" />
    </clipPath>
    <clipPath
       clipPathUnits="userSpaceOnUse"
       id="clipPath82">
      <path
         d="M 0,208 H 377 V 0 H 0 Z"
         transform="translate(-106.52391,-76.022899)"
         id="path82" />
    </clipPath>
    <clipPath
       clipPathUnits="userSpaceOnUse"
       id="clipPath84">
      <path
         d="M 0,208 H 377 V 0 H 0 Z"
         transform="translate(-120.29391,-87.5444)"
         id="path84" />
    </clipPath>
    <clipPath
       clipPathUnits="userSpaceOnUse"
       id="clipPath86">
      <path
         d="M 0,208 H 377 V 0 H 0 Z"
         transform="translate(-132.957,-87.5444)"
         id="path86" />
    </clipPath>
    <clipPath
       clipPathUnits="userSpaceOnUse"
       id="clipPath88">
      <path
         d="M 0,208 H 377 V 0 H 0 Z"
         transform="translate(-140.292,-81.264605)"
         id="path88" />
    </clipPath>
    <clipPath
       clipPathUnits="userSpaceOnUse"
       id="clipPath90">
      <path
         d="M 0,208 H 377 V 0 H 0 Z"
         transform="translate(-155.39361,-87.5444)"
         id="path90" />
    </clipPath>
    <clipPath
       clipPathUnits="userSpaceOnUse"
       id="clipPath92">
      <path
         d="M 0,208 H 377 V 0 H 0 Z"
         id="path92" />
    </clipPath>
    <clipPath
       clipPathUnits="userSpaceOnUse"
       id="clipPath94">
      <path
         d="M 0,208 H 377 V 0 H 0 Z"
         id="path94" />
    </clipPath>
  </defs>
  <g
     inkscape:label="Livello 1"
     inkscape:groupmode="layer"
     id="layer1"
     transform="translate(-72.249003,-108.36791)">
    <g
       id="g94"
       style="display:inline;fill:#ececec"
       transform="matrix(0.26458333,0,0,0.26458333,55.164603,84.515968)">
      <path
         id="path1"
         d="M 0,0 -18.958,-32.069 0,-64.139 c -12.485,0 -15.917,-0.318 -20.076,7.246 l -14.163,24.824 14.163,24.823 C -15.917,0.318 -12.485,0 0,0"
         style="fill:#ececec;fill-opacity:1;fill-rule:nonzero;stroke:none"
         transform="matrix(1.3333333,0,0,-1.3333333,306.66347,90.466133)"
         clip-path="url(#clipPath2)" />
      <path
         id="path3"
         d="M 0,0 H 8.176 V 1.952 H -2.16 v -1.76 l 1.696,-2.944 1.536,0.815 z"
         style="fill:#ececec;fill-opacity:1;fill-rule:nonzero;stroke:none"
         transform="matrix(1.3333333,0,0,-1.3333333,422.96227,124.4036)"
         clip-path="url(#clipPath4)" />
      <path
         id="path5"
         d="M 0,0 C 0.365,0.002 0.674,-0.041 0.925,-0.128 1.176,-0.213 1.378,-0.36 1.528,-0.562 1.68,-0.766 1.787,-1.038 1.853,-1.384 1.92,-1.728 1.955,-2.158 1.952,-2.672 1.952,-2.787 1.946,-2.928 1.936,-3.096 1.925,-3.264 1.909,-3.438 1.888,-3.619 1.867,-3.8 1.84,-3.971 1.808,-4.128 L 3.44,-4.304 c 0.037,0.162 0.072,0.349 0.099,0.56 0.029,0.208 0.05,0.424 0.069,0.645 0.016,0.224 0.024,0.435 0.024,0.635 0.003,0.728 -0.059,1.368 -0.184,1.917 C 3.322,0.005 3.117,0.466 2.832,0.837 2.546,1.205 2.165,1.485 1.687,1.672 1.21,1.858 0.621,1.952 -0.081,1.952 H -3.968 C -4.43,1.957 -4.848,1.915 -5.222,1.824 -5.597,1.733 -5.917,1.57 -6.187,1.336 -6.456,1.101 -6.662,0.765 -6.806,0.333 -6.95,-0.102 -7.021,-0.662 -7.024,-1.344 c 0,-0.605 0.069,-1.12 0.203,-1.539 0.133,-0.419 0.327,-0.757 0.581,-1.013 0.253,-0.256 0.557,-0.443 0.917,-0.558 0.357,-0.114 0.76,-0.173 1.211,-0.17 h 0.768 c 0.611,-0.003 1.112,0.09 1.501,0.274 0.389,0.187 0.677,0.48 0.864,0.881 0.184,0.4 0.275,0.922 0.275,1.565 0,0.346 -0.025,0.68 -0.072,1 C -0.824,-0.582 -0.896,-0.28 -0.992,0 Z M -2.384,-1.6 C -2.381,-1.835 -2.414,-2.032 -2.475,-2.192 -2.536,-2.35 -2.643,-2.47 -2.79,-2.549 -2.937,-2.632 -3.139,-2.672 -3.392,-2.672 h -0.784 c -0.272,-0.003 -0.493,0.037 -0.667,0.12 -0.171,0.082 -0.299,0.221 -0.381,0.416 -0.08,0.195 -0.12,0.458 -0.12,0.792 -0.003,0.333 0.034,0.6 0.107,0.797 0.074,0.197 0.194,0.339 0.367,0.422 0.171,0.084 0.403,0.127 0.694,0.125 h 1.456 c 0.098,-0.227 0.178,-0.478 0.24,-0.752 0.061,-0.275 0.093,-0.558 0.096,-0.848"
         style="fill:#ececec;fill-opacity:1;fill-rule:nonzero;stroke:none"
         transform="matrix(1.3333333,0,0,-1.3333333,429.2344,112.86267)"
         clip-path="url(#clipPath6)" />
      <path
         id="path7"
         d="M 0,0 H 8.176 V 1.952 H -2.16 v -1.76 l 1.696,-2.944 1.536,0.816 z"
         style="fill:#ececec;fill-opacity:1;fill-rule:nonzero;stroke:none"
         transform="matrix(1.3333333,0,0,-1.3333333,422.96227,105.0976)"
         clip-path="url(#clipPath8)" />
      <path
         id="path9"
         d="m 0,0 h -0.72 c -0.52,0.002 -0.968,-0.099 -1.346,-0.304 -0.376,-0.208 -0.667,-0.544 -0.872,-1.008 -0.203,-0.461 -0.307,-1.075 -0.31,-1.84 0.003,-0.765 0.107,-1.379 0.31,-1.84 0.205,-0.464 0.496,-0.8 0.872,-1.006 0.378,-0.208 0.826,-0.309 1.346,-0.306 H 0 c 0.262,-0.003 0.504,0.032 0.733,0.106 0.23,0.075 0.449,0.206 0.654,0.39 0.208,0.184 0.405,0.44 0.597,0.768 0.195,-0.392 0.4,-0.699 0.611,-0.92 0.21,-0.222 0.44,-0.379 0.682,-0.469 C 3.521,-6.52 3.79,-6.563 4.08,-6.56 h 0.672 c 0.627,-0.003 1.136,0.106 1.528,0.328 0.392,0.224 0.678,0.586 0.859,1.088 0.181,0.498 0.272,1.165 0.269,1.992 C 7.411,-2.323 7.32,-1.659 7.139,-1.16 6.958,-0.659 6.672,-0.296 6.28,-0.072 5.888,0.149 5.379,0.261 4.752,0.256 H 4.08 C 3.79,0.258 3.521,0.216 3.277,0.128 3.035,0.04 2.805,-0.115 2.595,-0.336 2.384,-0.558 2.179,-0.867 1.984,-1.264 1.792,-0.931 1.595,-0.672 1.387,-0.488 1.182,-0.304 0.963,-0.176 0.733,-0.104 0.504,-0.032 0.262,0.002 0,0 M 4.288,-1.632 H 4.72 C 4.981,-1.629 5.189,-1.675 5.347,-1.771 5.504,-1.864 5.619,-2.024 5.688,-2.246 5.76,-2.47 5.795,-2.771 5.792,-3.152 5.795,-3.534 5.76,-3.835 5.688,-4.059 5.619,-4.28 5.504,-4.44 5.347,-4.534 5.189,-4.629 4.981,-4.675 4.72,-4.672 H 4.288 C 4.123,-4.675 3.974,-4.659 3.845,-4.627 3.718,-4.592 3.6,-4.526 3.491,-4.421 3.381,-4.32 3.272,-4.168 3.16,-3.963 3.051,-3.76 2.931,-3.488 2.8,-3.152 c 0.131,0.339 0.251,0.608 0.36,0.81 0.112,0.206 0.221,0.358 0.331,0.459 0.109,0.104 0.227,0.171 0.354,0.205 0.129,0.032 0.278,0.049 0.443,0.046 M 0,-4.417 h -0.672 c -0.213,-0.002 -0.392,0.033 -0.538,0.105 -0.144,0.072 -0.254,0.2 -0.329,0.384 -0.071,0.184 -0.109,0.443 -0.109,0.776 0,0.333 0.038,0.592 0.109,0.776 0.075,0.184 0.185,0.312 0.329,0.384 0.146,0.072 0.325,0.106 0.538,0.104 H 0 C 0.147,-1.886 0.275,-1.899 0.384,-1.931 0.494,-1.96 0.592,-2.019 0.683,-2.107 0.773,-2.192 0.864,-2.32 0.955,-2.488 1.043,-2.656 1.142,-2.877 1.248,-3.152 1.142,-3.427 1.043,-3.648 0.955,-3.816 0.864,-3.984 0.773,-4.112 0.683,-4.197 0.592,-4.286 0.494,-4.344 0.384,-4.374 0.275,-4.405 0.147,-4.419 0,-4.417"
         style="fill:#ececec;fill-opacity:1;fill-rule:nonzero;stroke:none"
         transform="matrix(1.3333333,0,0,-1.3333333,424.1992,90.761733)"
         clip-path="url(#clipPath10)" />
      <path
         id="path11"
         d="m 187.08,140.189 h 2.889 V 76.033 h -2.889 z"
         style="fill:#ececec;fill-opacity:1;fill-rule:evenodd;stroke:none"
         transform="matrix(1.3333333,0,0,-1.3333333,0,277.33333)"
         clip-path="url(#clipPath12)" />
      <path
         id="path13"
         d="m 0,0 c 0,-5.199 -2.504,-8.184 -9.724,-8.185 -7.22,0.001 -9.724,2.986 -9.724,8.185 l -0.001,37.759 c 0,3.492 -2.844,6.338 -6.337,6.338 h -8.106 V -1.348 c 0,-9.724 6.066,-19.657 24.168,-19.658 18.101,0.001 24.167,9.934 24.167,19.658 V 44.097 H 6.338 C 2.845,44.097 0,41.251 0,37.759 Z"
         style="fill:#ececec;fill-opacity:1;fill-rule:nonzero;stroke:none"
         transform="matrix(1.3333333,0,0,-1.3333333,354.91933,149.15627)"
         clip-path="url(#clipPath14)" />
      <path
         id="path15"
         d="m 0,0 h -25.463 l 0.001,44.991 c 0,3.492 -2.845,6.338 -6.338,6.338 h -8.105 v -64.178 h 33.568 c 3.492,0 6.337,2.845 6.337,6.337 z"
         style="fill:#ececec;fill-opacity:1;fill-rule:nonzero;stroke:none"
         transform="matrix(1.3333333,0,0,-1.3333333,433.83067,158.8516)"
         clip-path="url(#clipPath16)" />
      <path
         id="path17"
         d="m 85.095,127.232 h 2.919 v 12.961 h -2.919 z m 7.065,0 h 3.289 l -3.912,6.617 3.639,6.345 h -3.289 l -3.503,-6.345 z"
         style="fill:#ececec;fill-opacity:1;fill-rule:nonzero;stroke:none"
         transform="matrix(1.3333333,0,0,-1.3333333,0,277.33333)"
         clip-path="url(#clipPath18)" />
      <path
         id="path19"
         d="m 0,0 h -3.892 l -3.951,-12.961 h 3.036 l 0.701,2.529 h 4.339 l 0.701,-2.529 H 3.97 Z m -1.946,-2.569 1.479,-5.43 h -2.978 z"
         style="fill:#ececec;fill-opacity:1;fill-rule:nonzero;stroke:none"
         transform="matrix(1.3333333,0,0,-1.3333333,139.14907,90.408267)"
         clip-path="url(#clipPath20)" />
      <path
         id="path21"
         d="M 0,0 V 2.588 H -9.886 V 0 h 3.483 v -10.373 h 2.92 V 0 Z"
         style="fill:#ececec;fill-opacity:1;fill-rule:nonzero;stroke:none"
         transform="matrix(1.3333333,0,0,-1.3333333,156.6908,93.859333)"
         clip-path="url(#clipPath22)" />
      <path
         id="path23"
         d="M 0,0 C 0.003,0.497 -0.087,0.98 -0.269,1.45 -0.451,1.92 -0.743,2.345 -1.139,2.722 -1.534,3.101 -2.053,3.403 -2.692,3.626 -3.331,3.851 -4.109,3.964 -5.021,3.97 -5.933,3.964 -6.708,3.851 -7.35,3.626 -7.989,3.403 -8.508,3.101 -8.904,2.722 -9.299,2.345 -9.588,1.92 -9.773,1.45 -9.955,0.98 -10.045,0.497 -10.042,0 v -5.41 c -0.003,-0.496 0.087,-0.98 0.269,-1.45 0.185,-0.471 0.474,-0.892 0.869,-1.271 0.396,-0.38 0.915,-0.682 1.554,-0.906 0.642,-0.223 1.417,-0.337 2.329,-0.343 0.912,0.006 1.69,0.12 2.329,0.343 0.639,0.224 1.158,0.526 1.553,0.906 0.396,0.379 0.688,0.8 0.87,1.271 0.182,0.47 0.272,0.954 0.269,1.45 z m -2.919,-5.157 c 0.003,-0.513 -0.162,-0.911 -0.503,-1.197 -0.341,-0.289 -0.872,-0.435 -1.599,-0.438 -0.727,0.003 -1.258,0.149 -1.599,0.438 -0.338,0.286 -0.506,0.684 -0.503,1.197 v 4.905 c -0.003,0.512 0.165,0.911 0.503,1.196 0.341,0.288 0.872,0.434 1.599,0.438 0.727,-0.004 1.258,-0.15 1.599,-0.438 0.341,-0.285 0.506,-0.684 0.503,-1.196 z"
         style="fill:#ececec;fill-opacity:1;fill-rule:nonzero;stroke:none"
         transform="matrix(1.3333333,0,0,-1.3333333,171.42973,95.442667)"
         clip-path="url(#clipPath24)" />
      <path
         id="path25"
         d="M 0,0 V 2.588 H -5.138 V 12.961 H -8.057 V 0 Z"
         style="fill:#ececec;fill-opacity:1;fill-rule:nonzero;stroke:none"
         transform="matrix(1.3333333,0,0,-1.3333333,185.15693,107.69013)"
         clip-path="url(#clipPath26)" />
      <path
         id="path27"
         d="m 143.539,140.194 h -2.919 v -12.961 h 2.919 z"
         style="fill:#ececec;fill-opacity:1;fill-rule:nonzero;stroke:none"
         transform="matrix(1.3333333,0,0,-1.3333333,0,277.33333)"
         clip-path="url(#clipPath28)" />
      <path
         id="path29"
         d="M 0,0 C -0.003,0.376 0.045,0.701 0.149,0.966 0.253,1.232 0.438,1.437 0.701,1.576 0.963,1.719 1.333,1.791 1.81,1.791 2.125,1.791 2.468,1.777 2.841,1.755 3.214,1.729 3.601,1.693 3.996,1.647 4.392,1.599 4.778,1.544 5.158,1.479 L 5.566,4.028 C 4.931,4.165 4.304,4.269 3.695,4.336 3.085,4.405 2.456,4.437 1.81,4.437 0.724,4.431 -0.172,4.262 -0.869,3.931 -1.566,3.601 -2.085,3.137 -2.419,2.543 -2.754,1.949 -2.922,1.258 -2.919,0.467 v -5.41 c -0.003,-0.792 0.165,-1.483 0.5,-2.077 0.334,-0.593 0.853,-1.057 1.55,-1.387 0.697,-0.332 1.593,-0.5 2.679,-0.507 0.646,0 1.275,0.036 1.885,0.104 0.609,0.068 1.236,0.169 1.871,0.305 L 5.158,-5.956 C 4.778,-6.021 4.392,-6.076 3.996,-6.124 3.601,-6.169 3.214,-6.205 2.841,-6.228 2.468,-6.254 2.125,-6.267 1.81,-6.267 c -0.477,0 -0.847,0.072 -1.109,0.214 -0.263,0.14 -0.448,0.344 -0.552,0.61 -0.104,0.266 -0.152,0.59 -0.149,0.966 z"
         style="fill:#ececec;fill-opacity:1;fill-rule:nonzero;stroke:none"
         transform="matrix(1.3333333,0,0,-1.3333333,198.39133,96.065067)"
         clip-path="url(#clipPath30)" />
      <path
         id="path31"
         d="m 156.306,127.232 h 2.919 v 12.961 h -2.919 z m 7.064,0 h 3.289 l -3.911,6.617 3.639,6.345 h -3.289 l -3.503,-6.345 z"
         style="fill:#ececec;fill-opacity:1;fill-rule:nonzero;stroke:none"
         transform="matrix(1.3333333,0,0,-1.3333333,0,277.33333)"
         clip-path="url(#clipPath32)" />
      <path
         id="path33"
         d="m 171.33,140.194 h -2.919 v -12.961 h 2.919 z"
         style="fill:#ececec;fill-opacity:1;fill-rule:nonzero;stroke:none"
         transform="matrix(1.3333333,0,0,-1.3333333,0,277.33333)"
         clip-path="url(#clipPath34)" />
      <path
         id="path35"
         d="m 0,0 v -8.914 c 0.003,-0.35 -0.059,-0.649 -0.185,-0.895 -0.127,-0.246 -0.335,-0.435 -0.623,-0.565 -0.289,-0.129 -0.675,-0.194 -1.158,-0.194 -0.483,0 -0.869,0.065 -1.158,0.194 -0.289,0.13 -0.497,0.319 -0.623,0.565 -0.126,0.246 -0.188,0.545 -0.185,0.895 V 0 h -2.919 v -9.186 c -0.003,-0.496 0.081,-0.98 0.25,-1.45 0.169,-0.47 0.441,-0.892 0.821,-1.272 0.379,-0.379 0.882,-0.681 1.508,-0.905 0.626,-0.223 1.395,-0.337 2.306,-0.343 0.912,0.006 1.68,0.12 2.306,0.343 0.626,0.224 1.129,0.526 1.509,0.905 0.379,0.38 0.651,0.802 0.82,1.272 0.169,0.47 0.253,0.954 0.25,1.45 V 0 Z"
         style="fill:#ececec;fill-opacity:1;fill-rule:nonzero;stroke:none"
         transform="matrix(1.3333333,0,0,-1.3333333,73.705733,113.84307)"
         clip-path="url(#clipPath36)" />
      <path
         id="path37"
         d="M 0,0 H 3.601 V 12.962 H 0.817 V 4.029 l -4.261,8.933 H -7.026 V 0 h 2.783 v 8.524 z"
         style="fill:#ececec;fill-opacity:1;fill-rule:nonzero;stroke:none"
         transform="matrix(1.3333333,0,0,-1.3333333,90.208933,131.1256)"
         clip-path="url(#clipPath38)" />
      <path
         id="path39"
         d="m 76.804,122.618 h -2.919 v -12.962 h 2.919 z"
         style="fill:#ececec;fill-opacity:1;fill-rule:nonzero;stroke:none"
         transform="matrix(1.3333333,0,0,-1.3333333,0,277.33333)"
         clip-path="url(#clipPath40)" />
      <path
         id="path41"
         d="M 0,0 H -2.88 L -5.06,-9.264 -7.279,0 H -10.84 L -13.098,-9.264 -15.297,0 h -2.88 l 3.191,-12.962 h 3.718 l 2.199,9.848 2.179,-9.848 h 3.718 z"
         style="fill:#ececec;fill-opacity:1;fill-rule:nonzero;stroke:none"
         transform="matrix(1.3333333,0,0,-1.3333333,128.58787,113.84307)"
         clip-path="url(#clipPath42)" />
      <path
         id="path43"
         d="m 0,0 v 2.588 h -5.235 v 2.823 h 4.826 v 2.588 h -4.826 v 2.374 H 0 v 2.589 H -8.154 V 0 Z"
         style="fill:#ececec;fill-opacity:1;fill-rule:nonzero;stroke:none"
         transform="matrix(1.3333333,0,0,-1.3333333,141.27667,131.1256)"
         clip-path="url(#clipPath44)" />
      <path
         id="path45"
         d="M 0,0 H 3.464 L 0.331,4.437 C 0.979,4.71 1.456,5.119 1.764,5.661 2.069,6.205 2.222,6.88 2.218,7.688 v 1.595 c 0.007,0.811 -0.136,1.489 -0.418,2.034 -0.286,0.548 -0.746,0.957 -1.382,1.233 -0.632,0.276 -1.472,0.412 -2.52,0.412 H -7.493 V 0 h 2.919 v 4.029 h 1.713 z M -0.701,7.979 C -0.698,7.655 -0.74,7.389 -0.827,7.178 -0.915,6.967 -1.074,6.812 -1.301,6.711 -1.528,6.607 -1.846,6.559 -2.258,6.559 h -2.316 v 3.814 h 2.316 c 0.393,0.003 0.704,-0.045 0.931,-0.136 0.227,-0.094 0.39,-0.24 0.487,-0.441 0.097,-0.201 0.142,-0.461 0.139,-0.785 z"
         style="fill:#ececec;fill-opacity:1;fill-rule:nonzero;stroke:none"
         transform="matrix(1.3333333,0,0,-1.3333333,154.252,131.1256)"
         clip-path="url(#clipPath46)" />
      <path
         id="path47"
         d="m 0,0 c 0.003,0.506 -0.01,0.947 -0.045,1.32 -0.036,0.376 -0.117,0.701 -0.241,0.973 -0.126,0.272 -0.32,0.513 -0.584,0.717 -0.265,0.204 -0.625,0.389 -1.079,0.558 -0.458,0.169 -1.032,0.334 -1.729,0.499 -0.506,0.117 -0.902,0.218 -1.191,0.306 -0.288,0.084 -0.496,0.181 -0.626,0.285 -0.13,0.107 -0.211,0.25 -0.243,0.431 -0.033,0.179 -0.049,0.422 -0.042,0.73 -0.003,0.314 0.035,0.558 0.123,0.733 0.088,0.172 0.246,0.292 0.48,0.36 0.231,0.065 0.561,0.097 0.993,0.094 0.386,0 0.759,-0.013 1.125,-0.039 0.364,-0.026 0.746,-0.068 1.145,-0.123 0.399,-0.052 0.84,-0.123 1.33,-0.208 l 0.292,2.453 C -1.015,9.244 -1.709,9.354 -2.375,9.419 -3.04,9.487 -3.656,9.52 -4.223,9.517 -5.108,9.517 -5.842,9.452 -6.426,9.316 -7.006,9.179 -7.463,8.968 -7.798,8.676 -8.128,8.388 -8.365,8.015 -8.502,7.554 -8.638,7.097 -8.703,6.542 -8.7,5.897 -8.703,5.339 -8.677,4.859 -8.625,4.46 c 0.052,-0.402 0.149,-0.743 0.292,-1.022 0.14,-0.282 0.347,-0.519 0.613,-0.713 0.266,-0.198 0.616,-0.367 1.045,-0.517 0.427,-0.145 0.953,-0.285 1.576,-0.417 0.526,-0.114 0.937,-0.218 1.236,-0.309 0.298,-0.094 0.516,-0.198 0.649,-0.315 0.136,-0.116 0.22,-0.262 0.253,-0.444 0.032,-0.181 0.048,-0.415 0.042,-0.703 0.003,-0.273 -0.02,-0.497 -0.068,-0.675 -0.049,-0.182 -0.137,-0.321 -0.266,-0.426 -0.127,-0.103 -0.309,-0.174 -0.545,-0.22 -0.234,-0.042 -0.539,-0.061 -0.912,-0.061 -0.668,0.003 -1.31,0.061 -1.927,0.172 -0.616,0.113 -1.219,0.262 -1.809,0.45 l -0.487,-2.257 c 0.373,-0.169 0.788,-0.318 1.246,-0.441 0.457,-0.127 0.934,-0.224 1.433,-0.292 0.5,-0.068 1.003,-0.104 1.505,-0.104 0.779,0 1.444,0.052 1.995,0.152 0.551,0.101 1.009,0.253 1.366,0.458 0.36,0.204 0.642,0.457 0.843,0.765 0.201,0.305 0.344,0.665 0.428,1.074 C -0.036,-0.976 0.003,-0.513 0,0"
         style="fill:#ececec;fill-opacity:1;fill-rule:nonzero;stroke:none"
         transform="matrix(1.3333333,0,0,-1.3333333,172.33787,126.2728)"
         clip-path="url(#clipPath48)" />
      <path
         id="path49"
         d="M 0,0 H -3.056 L -5.488,-6.014 -7.921,0 h -3.056 l 4.029,-9.225 v -3.737 h 2.92 v 3.737 z"
         style="fill:#ececec;fill-opacity:1;fill-rule:nonzero;stroke:none"
         transform="matrix(1.3333333,0,0,-1.3333333,188.01107,113.84307)"
         clip-path="url(#clipPath50)" />
      <path
         id="path51"
         d="M 0,0 V 2.589 H -9.887 V 0 h 3.484 v -10.373 h 2.92 V 0 Z"
         style="fill:#ececec;fill-opacity:1;fill-rule:nonzero;stroke:none"
         transform="matrix(1.3333333,0,0,-1.3333333,202.2832,117.29493)"
         clip-path="url(#clipPath52)" />
      <path
         id="path53"
         d="m 0,0 v 2.588 h -5.235 v 2.823 h 4.826 v 2.588 h -4.826 v 2.374 H 0 v 2.589 H -8.154 V 0 Z"
         style="fill:#ececec;fill-opacity:1;fill-rule:nonzero;stroke:none"
         transform="matrix(1.3333333,0,0,-1.3333333,215.15427,131.1256)"
         clip-path="url(#clipPath54)" />
      <path
         id="path55"
         d="M 0,0 V 2.589 H -9.887 V 0 h 3.484 v -10.373 h 2.919 V 0 Z"
         style="fill:#ececec;fill-opacity:1;fill-rule:nonzero;stroke:none"
         transform="matrix(1.3333333,0,0,-1.3333333,229.94533,117.29493)"
         clip-path="url(#clipPath56)" />
      <path
         id="path57"
         d="M 0,0 V 2.588 H -5.138 V 12.962 H -8.057 V 0 Z"
         style="fill:#ececec;fill-opacity:1;fill-rule:nonzero;stroke:none"
         transform="matrix(1.3333333,0,0,-1.3333333,134.68613,154.56053)"
         clip-path="url(#clipPath58)" />
      <path
         id="path59"
         d="m 0,0 v -8.914 c 0.003,-0.35 -0.059,-0.649 -0.185,-0.895 -0.127,-0.246 -0.334,-0.435 -0.623,-0.565 -0.289,-0.129 -0.675,-0.194 -1.158,-0.194 -0.483,0 -0.869,0.065 -1.158,0.194 -0.289,0.13 -0.496,0.319 -0.623,0.565 -0.126,0.246 -0.188,0.545 -0.185,0.895 V 0 h -2.919 v -9.187 c -0.003,-0.496 0.081,-0.979 0.25,-1.449 0.169,-0.47 0.441,-0.892 0.821,-1.272 0.379,-0.379 0.882,-0.681 1.508,-0.905 0.626,-0.223 1.395,-0.337 2.306,-0.344 0.912,0.007 1.68,0.121 2.306,0.344 0.626,0.224 1.129,0.526 1.509,0.905 0.379,0.38 0.651,0.802 0.82,1.272 0.169,0.47 0.253,0.953 0.25,1.449 V 0 Z"
         style="fill:#ececec;fill-opacity:1;fill-rule:nonzero;stroke:none"
         transform="matrix(1.3333333,0,0,-1.3333333,145.5072,137.278)"
         clip-path="url(#clipPath60)" />
      <path
         id="path61"
         d="m 0,0 v 1.265 c -0.003,0.406 -0.088,0.773 -0.256,1.1 -0.169,0.331 -0.396,0.607 -0.681,0.83 -0.286,0.224 -0.61,0.377 -0.97,0.464 0.512,0.224 0.879,0.503 1.106,0.841 0.227,0.337 0.337,0.735 0.334,1.203 v 1.323 c 0.003,0.587 -0.114,1.093 -0.357,1.515 -0.243,0.425 -0.635,0.749 -1.181,0.98 -0.541,0.23 -1.262,0.343 -2.16,0.347 H -9.283 V -3.094 h 5.527 c 0.862,0.003 1.57,0.136 2.124,0.396 0.555,0.259 0.967,0.619 1.233,1.083 C -0.13,-1.151 0.003,-0.613 0,0 M -3.386,5.469 C -3.386,5.2 -3.484,4.982 -3.678,4.814 -3.873,4.646 -4.165,4.561 -4.554,4.554 h -1.81 v 2.959 h 1.81 C -4.148,7.509 -3.851,7.428 -3.662,7.266 -3.478,7.107 -3.383,6.883 -3.386,6.598 Z M -2.919,0.39 C -2.923,0.082 -2.997,-0.155 -3.14,-0.317 -3.283,-0.483 -3.478,-0.593 -3.724,-0.655 -3.97,-0.713 -4.246,-0.743 -4.554,-0.739 h -1.81 v 3.016 h 2.218 c 0.393,0 0.695,-0.09 0.906,-0.275 0.21,-0.182 0.317,-0.455 0.321,-0.815 z"
         style="fill:#ececec;fill-opacity:1;fill-rule:nonzero;stroke:none"
         transform="matrix(1.3333333,0,0,-1.3333333,165.0208,150.43493)"
         clip-path="url(#clipPath62)" />
      <path
         id="path63"
         d="m 0,0 v 2.588 h -5.235 v 2.823 h 4.826 v 2.588 h -4.826 v 2.374 H 0 v 2.589 H -8.154 V 0 Z"
         style="fill:#ececec;fill-opacity:1;fill-rule:nonzero;stroke:none"
         transform="matrix(1.3333333,0,0,-1.3333333,178.35867,154.56053)"
         clip-path="url(#clipPath64)" />
      <path
         id="path65"
         d="M 0,0 V 2.588 H -5.138 V 12.962 H -8.057 V 0 Z"
         style="fill:#ececec;fill-opacity:1;fill-rule:nonzero;stroke:none"
         transform="matrix(1.3333333,0,0,-1.3333333,192.086,154.56053)"
         clip-path="url(#clipPath66)" />
      <path
         id="path67"
         d="m 0,0 c 0.003,0.506 -0.009,0.947 -0.045,1.32 -0.036,0.376 -0.117,0.701 -0.24,0.973 -0.127,0.272 -0.321,0.513 -0.584,0.717 -0.266,0.204 -0.626,0.389 -1.08,0.558 -0.458,0.168 -1.032,0.334 -1.729,0.499 -0.506,0.117 -0.902,0.218 -1.191,0.306 -0.288,0.084 -0.496,0.181 -0.626,0.285 -0.13,0.107 -0.211,0.25 -0.243,0.431 -0.033,0.179 -0.049,0.422 -0.042,0.73 -0.003,0.314 0.036,0.557 0.123,0.733 0.088,0.172 0.246,0.292 0.48,0.36 0.231,0.065 0.561,0.097 0.993,0.094 0.386,0 0.759,-0.013 1.125,-0.039 0.364,-0.026 0.746,-0.068 1.145,-0.123 0.399,-0.052 0.841,-0.123 1.33,-0.208 l 0.292,2.452 C -1.015,9.244 -1.709,9.354 -2.374,9.419 -3.039,9.487 -3.655,9.52 -4.223,9.517 -5.108,9.517 -5.841,9.452 -6.425,9.316 -7.006,9.179 -7.463,8.968 -7.797,8.676 -8.128,8.388 -8.365,8.015 -8.501,7.554 -8.638,7.097 -8.703,6.542 -8.699,5.897 -8.703,5.339 -8.676,4.859 -8.625,4.46 -8.573,4.058 -8.476,3.717 -8.333,3.438 -8.193,3.156 -7.986,2.919 -7.72,2.725 -7.454,2.527 -7.104,2.358 -6.675,2.208 -6.247,2.063 -5.722,1.923 -5.099,1.79 c 0.526,-0.113 0.937,-0.217 1.236,-0.308 0.298,-0.094 0.516,-0.198 0.649,-0.315 0.136,-0.116 0.22,-0.262 0.253,-0.444 0.032,-0.181 0.048,-0.415 0.042,-0.703 0.003,-0.273 -0.019,-0.497 -0.068,-0.676 -0.049,-0.181 -0.137,-0.321 -0.266,-0.425 -0.126,-0.103 -0.309,-0.174 -0.545,-0.22 -0.234,-0.042 -0.538,-0.061 -0.911,-0.061 -0.669,0.003 -1.311,0.061 -1.927,0.172 -0.616,0.113 -1.22,0.262 -1.81,0.45 l -0.487,-2.257 c 0.373,-0.169 0.788,-0.318 1.246,-0.441 0.457,-0.127 0.934,-0.224 1.433,-0.292 0.5,-0.068 1.003,-0.104 1.505,-0.104 0.779,0 1.444,0.052 1.995,0.152 0.551,0.101 1.009,0.253 1.366,0.458 0.36,0.204 0.642,0.457 0.843,0.765 0.201,0.305 0.344,0.665 0.428,1.074 C -0.036,-0.977 0.003,-0.513 0,0"
         style="fill:#ececec;fill-opacity:1;fill-rule:nonzero;stroke:none"
         transform="matrix(1.3333333,0,0,-1.3333333,205.68293,149.70773)"
         clip-path="url(#clipPath68)" />
      <path
         id="path69"
         d="m 156.306,92.08 h 2.919 v 12.962 h -2.919 z m 7.064,0 h 3.289 l -3.911,6.617 3.639,6.345 h -3.289 l -3.503,-6.345 z"
         style="fill:#ececec;fill-opacity:1;fill-rule:nonzero;stroke:none"
         transform="matrix(1.3333333,0,0,-1.3333333,0,277.33333)"
         clip-path="url(#clipPath70)" />
      <path
         id="path71"
         d="m 171.33,105.042 h -2.919 V 92.08 h 2.919 z"
         style="fill:#ececec;fill-opacity:1;fill-rule:nonzero;stroke:none"
         transform="matrix(1.3333333,0,0,-1.3333333,0,277.33333)"
         clip-path="url(#clipPath72)" />
      <path
         id="path73"
         d="m 0,0 v -11.507 c 0.003,-0.156 -0.003,-0.291 -0.018,-0.407 -0.011,-0.115 -0.043,-0.224 -0.094,-0.334 -0.055,-0.106 -0.139,-0.228 -0.254,-0.366 -0.115,-0.136 -0.277,-0.305 -0.479,-0.508 -0.204,-0.201 -0.464,-0.452 -0.781,-0.752 l 0.934,-1.055 c 0.395,0.366 0.727,0.675 0.992,0.929 0.262,0.253 0.475,0.475 0.634,0.662 0.159,0.188 0.28,0.366 0.36,0.534 0.079,0.17 0.133,0.351 0.159,0.547 0.026,0.196 0.038,0.427 0.035,0.698 V 0 Z"
         style="fill:#ececec;fill-opacity:1;fill-rule:nonzero;stroke:none"
         transform="matrix(1.3333333,0,0,-1.3333333,87.251333,160.60747)"
         clip-path="url(#clipPath74)" />
      <path
         id="path75"
         d="m 0,0 h -2.006 l -3.893,-11.521 h 1.505 l 0.935,2.768 h 4.895 l 0.952,-2.768 h 1.505 z m 1.056,-7.456 h -4.118 l 2.059,6.383 z"
         style="fill:#ececec;fill-opacity:1;fill-rule:nonzero;stroke:none"
         transform="matrix(1.3333333,0,0,-1.3333333,99.7064,160.60747)"
         clip-path="url(#clipPath76)" />
      <path
         id="path77"
         d="M 0,0 H 2.042 V 11.521 H 0.623 v -9.86 l -5.017,9.86 H -6.435 V 0 h 1.419 v 9.809 z"
         style="fill:#ececec;fill-opacity:1;fill-rule:nonzero;stroke:none"
         transform="matrix(1.3333333,0,0,-1.3333333,116.08267,175.96947)"
         clip-path="url(#clipPath78)" />
      <path
         id="path79"
         d="m 0,0 h -2.007 l -3.892,-11.521 h 1.505 l 0.934,2.768 h 4.896 l 0.951,-2.768 h 1.505 z m 1.055,-7.456 h -4.117 l 2.059,6.383 z"
         style="fill:#ececec;fill-opacity:1;fill-rule:nonzero;stroke:none"
         transform="matrix(1.3333333,0,0,-1.3333333,129.27667,160.60747)"
         clip-path="url(#clipPath80)" />
      <path
         id="path81"
         d="M 0,0 H 1.488 V 4.117 H 4.169 C 4.988,4.121 5.645,4.235 6.135,4.46 6.625,4.688 6.978,5.014 7.19,5.441 7.407,5.865 7.513,6.375 7.508,6.972 V 8.685 C 7.513,9.275 7.407,9.783 7.19,10.204 6.978,10.627 6.625,10.951 6.135,11.178 5.645,11.406 4.988,11.519 4.169,11.521 H 0 Z M 6.02,8.667 V 6.972 C 6.023,6.6 5.965,6.3 5.841,6.078 5.72,5.853 5.521,5.692 5.241,5.594 4.962,5.496 4.587,5.446 4.117,5.45 H 1.488 v 4.739 H 4.117 C 4.587,10.192 4.962,10.146 5.241,10.048 5.521,9.953 5.72,9.792 5.841,9.569 5.965,9.348 6.023,9.045 6.02,8.667"
         style="fill:#ececec;fill-opacity:1;fill-rule:nonzero;stroke:none"
         transform="matrix(1.3333333,0,0,-1.3333333,142.03187,175.96947)"
         clip-path="url(#clipPath82)" />
      <path
         id="path83"
         d="m 0,0 h -2.007 l -3.892,-11.521 h 1.505 l 0.934,2.768 h 4.896 l 0.951,-2.768 h 1.505 z m 1.055,-7.456 h -4.117 l 2.059,6.383 z"
         style="fill:#ececec;fill-opacity:1;fill-rule:nonzero;stroke:none"
         transform="matrix(1.3333333,0,0,-1.3333333,160.39187,160.60747)"
         clip-path="url(#clipPath84)" />
      <path
         id="path85"
         d="M 0,0 H -2.076 L -4.463,-10.103 -7.093,0 h -1.453 l 3.027,-11.521 h 2.094 l 2.387,10.292 2.387,-10.292 H 3.442 L 6.47,0 H 5.017 l -2.63,-10.103 z"
         style="fill:#ececec;fill-opacity:1;fill-rule:nonzero;stroke:none"
         transform="matrix(1.3333333,0,0,-1.3333333,177.276,160.60747)"
         clip-path="url(#clipPath86)" />
      <path
         id="path87"
         d="m 0,0 0.484,-0.986 1.055,0.519 V -5.242 H 8.026 V -3.91 H 3.027 V 0.26 L 6.002,1.73 5.518,2.716 3.027,1.488 V 6.28 H 1.539 V 0.761 Z"
         style="fill:#ececec;fill-opacity:1;fill-rule:nonzero;stroke:none"
         transform="matrix(1.3333333,0,0,-1.3333333,187.056,168.98053)"
         clip-path="url(#clipPath88)" />
      <path
         id="path89"
         d="m 0,0 h -2.006 l -3.893,-11.521 h 1.505 l 0.935,2.768 h 4.895 l 0.952,-2.768 h 1.505 z m 1.056,-7.456 h -4.118 l 2.059,6.383 z"
         style="fill:#ececec;fill-opacity:1;fill-rule:nonzero;stroke:none"
         transform="matrix(1.3333333,0,0,-1.3333333,207.19147,160.60747)"
         clip-path="url(#clipPath90)" />
      <path
         id="path91"
         d="m 166.534,87.544 h -1.488 V 76.023 h 1.488 z"
         style="fill:#ececec;fill-opacity:1;fill-rule:nonzero;stroke:none"
         transform="matrix(1.3333333,0,0,-1.3333333,0,277.33333)"
         clip-path="url(#clipPath92)" />
      <path
         id="path93"
         d="m 171.136,87.544 h -1.488 V 76.023 h 1.488 z"
         style="fill:#ececec;fill-opacity:1;fill-rule:nonzero;stroke:none"
         transform="matrix(1.3333333,0,0,-1.3333333,0,277.33333)"
         clip-path="url(#clipPath94)" />
    </g>
  </g>
</svg>
