<?xml version="1.0" encoding="UTF-8" standalone="no"?>
<svg
   height="533.33563"
   width="808.76947"
   fill="#0071c5"
   viewBox="-44.7 -49.12825 261.09774 196.51385"
   version="1.1"
   id="svg2"
   sodipodi:docname="logo_intel_dark.svg"
   inkscape:version="1.3.2 (091e20e, 2023-11-25, custom)"
   xmlns:inkscape="http://www.inkscape.org/namespaces/inkscape"
   xmlns:sodipodi="http://sodipodi.sourceforge.net/DTD/sodipodi-0.dtd"
   xmlns="http://www.w3.org/2000/svg"
   xmlns:svg="http://www.w3.org/2000/svg">
  <defs
     id="defs2" />
  <sodipodi:namedview
     id="namedview2"
     pagecolor="#ffffff"
     bordercolor="#000000"
     borderopacity="0.25"
     inkscape:showpageshadow="2"
     inkscape:pageopacity="0.0"
     inkscape:pagecheckerboard="0"
     inkscape:deskcolor="#d1d1d1"
     inkscape:zoom="0.71083333"
     inkscape:cx="404.45487"
     inkscape:cy="266.58851"
     inkscape:window-width="1920"
     inkscape:window-height="991"
     inkscape:window-x="-9"
     inkscape:window-y="145"
     inkscape:window-maximized="1"
     inkscape:current-layer="svg2" />
  <path
     d="m 15.72225,34.226589 v 48.122 H 0.40225023 v -60.487 l 31.62599977,0.03 c 13.433,0 18.009,9.473 18.009,18.078 v 42.379 h -15.291 v -42.3 c 0,-3.604 -1.866,-5.822 -6.366,-5.822 z m 104.164,-0.723 c -5.236,0 -9.288,2.692 -10.98,6.346 -1.004,2.194 -1.348,3.875 -1.466,6.561 h 23.567 c -0.303,-6.561 -3.278,-12.907 -11.121,-12.907 m -12.446,23.333 c 0,7.835 4.87,13.602 13.567,13.602 6.766,0 10.129,-1.875 14.041,-5.767 l 9.461,9.034 c -6.058,5.98 -12.415,9.613 -23.615,9.613 -14.664,0 -28.697,-7.996 -28.697,-31.3 0,-19.91 12.252,-31.183 28.353,-31.183 16.32,0 25.748,13.197 25.748,30.483 v 5.518 h -38.858 m -28.174,25.436 c -12.48,0 -17.775,-8.687 -17.775,-17.267 V 5.3805888 h 15.295 V 21.860589 h 11.53 v 12.366 h -11.53 v 29.82 c 0,3.514 1.66,5.465 5.308,5.465 h 6.222 v 12.761 h -9.05 m -92.493,-68.77 h -15.424 V -1.1494112 h 15.424 z m 0.039,69.482 c -11.55,-1.11 -15.48,-8.116 -15.48,-16.2 l 0.018,-44.923 h 15.462 z m 183.829,-1.293 c -11.526,-1.111 -15.437,-8.106 -15.437,-16.18 V -3.2334112 h 15.437 z m 53.965,-74.9900002 C 210.61625,-61.504411 78.22025,-65.822411 -7.1167498,-13.871411 v 5.7359998 C 78.13325,-51.947411 199.04025,-51.688411 210.05625,11.131589 c 3.685,20.772 -8.02,42.429 -28.925,54.877 v 16.286 c 25.162,-9.205 50.967,-39.055 43.475,-75.5940002 M 69.48225,126.03259 c -58.897,5.445 -120.27,-3.104 -128.858,-49.127001 -4.204,-22.687 6.132,-46.737 19.843,-61.676 V 7.2415888 c -24.684,21.6440002 -38.079,49.0450002 -30.367,81.4230002 9.843,41.518001 62.5170002,65.047001 142.916,57.233001 31.81,-3.104 73.444,-13.333 102.389,-29.22 V 94.108589 c -26.264,15.640001 -69.726,28.573001 -105.923,31.924001"
     id="path1" />
  <path
     d="m 188.48525,1.3305888 c 0,-0.74800001 -0.437,-0.98600001 -1.436,-0.98600001 h -0.965 V 2.4625888 c 0.14,0 0.841,0.026 0.965,0.026 0.999,0 1.436,-0.334 1.436,-1.034 z m 1.504,5.253 h -1.143 a 0.272,0.272 0 0 1 -0.238,-0.152 l -1.56,-2.643 c -0.027,-0.054 -0.162,-0.118 -0.215,-0.118 h -0.7 v 2.621 c 0,0.14 -0.097,0.292 -0.281,0.292 h -1.034 c -0.13,0 -0.258,-0.152 -0.258,-0.292 v -6.63100001 c 0,-0.384 0.149,-0.544 0.473,-0.594 0.365,-0.048 1.357,-0.08 1.892,-0.08 1.899,0 3.048,0.55999999 3.048,2.344 v 0.124 c 0,1.104 -0.55,1.687 -1.402,1.972 l 1.617,2.734 c 0.01,0.056 0.048,0.131 0.048,0.196 0,0.107 -0.064,0.227 -0.247,0.227 m -2.714,-8.794 c -2.813,0 -5.088,2.32199999 -5.088,5.12 a 5.09,5.09 0 0 0 5.088,5.086 c 2.799,0 5.096,-2.286 5.096,-5.087 0,-2.79700001 -2.297,-5.12 -5.096,-5.12 m 0,11.261 a 6.133,6.133 0 0 1 -6.145,-6.14 6.138,6.138 0 0 1 6.145,-6.144 c 3.381,0 6.16,2.76599999 6.16,6.143 0,3.383 -2.779,6.141 -6.16,6.141"
     id="path2" />
</svg>
