<?xml version="1.0" encoding="UTF-8" standalone="no"?>
<!-- Generator: Adobe Illustrator 27.4.1, SVG Export Plug-In . SVG Version: 6.00 Build 0)  -->

<svg
   version="1.1"
   id="Warstwa_1"
   x="0px"
   y="0px"
   viewBox="0 0 381.59998 50"
   xml:space="preserve"
   sodipodi:docname="logo_tmg_dark.svg"
   width="381.59998"
   height="50"
   inkscape:version="1.3.2 (091e20e, 2023-11-25, custom)"
   xmlns:inkscape="http://www.inkscape.org/namespaces/inkscape"
   xmlns:sodipodi="http://sodipodi.sourceforge.net/DTD/sodipodi-0.dtd"
   xmlns="http://www.w3.org/2000/svg"
   xmlns:svg="http://www.w3.org/2000/svg"><defs
   id="defs40" /><sodipodi:namedview
   id="namedview40"
   pagecolor="#ffffff"
   bordercolor="#000000"
   borderopacity="0.25"
   inkscape:showpageshadow="2"
   inkscape:pageopacity="0.0"
   inkscape:pagecheckerboard="0"
   inkscape:deskcolor="#d1d1d1"
   inkscape:zoom="1.0402439"
   inkscape:cx="149.48417"
   inkscape:cy="46.623681"
   inkscape:window-width="1920"
   inkscape:window-height="991"
   inkscape:window-x="-9"
   inkscape:window-y="145"
   inkscape:window-maximized="1"
   inkscape:current-layer="Warstwa_1" />
<style
   type="text/css"
   id="style1">
	.st0{fill:#000000;}
</style>
<rect
   x="320.19998"
   y="0.10000038"
   class="st0"
   width="17"
   height="49.900002"
   id="rect1"
   style="fill:#e6e6e6" />
<path
   d="m 359.9,26.4 -17.6,9.7 v -36 h 17.6 c 0,-0.2 0,7.8 0,14.2 z"
   id="path1"
   style="fill:#e6e6e6" />
<rect
   x="364.59998"
   y="0.10000038"
   width="17"
   height="49.900002"
   id="rect2"
   style="fill:#e6e6e6" />
<g
   id="g14"
   transform="translate(-14.2,-15)"
   style="fill:#e6e6e6">
	<path
   d="M 27.3,20.7 V 42 h -6 V 20.7 h -7.1 v -5.3 h 20.3 v 5.3 z"
   id="path2"
   style="fill:#e6e6e6" />
	<path
   d="M 37.5,42 V 15.4 h 16.7 v 5.3 H 43.5 v 4.9 h 9.9 v 5.3 h -9.9 v 5.8 H 54.2 V 42 Z"
   id="path3"
   style="fill:#e6e6e6" />
	<path
   d="M 81.4,42 H 75.2 L 73.8,36.8 H 64.9 L 63.4,42 h -6.2 l 8.1,-26.6 h 8 z M 66.2,31.8 h 6.1 l -3,-11.1 z"
   id="path4"
   style="fill:#e6e6e6" />
	<path
   d="M 93.4,20.7 V 42 h -6 V 20.7 h -7.1 v -5.3 h 20.3 v 5.3 z"
   id="path5"
   style="fill:#e6e6e6" />
	<path
   d="m 113.1,33.7 h -3.5 V 42 h -6 V 15.4 h 11 c 6.5,0 8.9,2.6 8.9,7.5 v 3.3 c 0,3.3 -1.2,5.5 -3.9,6.7 L 126,42 h -7 z m 4.4,-10.2 c 0,-2 -0.8,-2.8 -3.2,-2.8 h -4.7 v 7.8 h 4.7 c 2.6,0 3.2,-0.9 3.2,-2.9 z"
   id="path6"
   style="fill:#e6e6e6" />
	<path
   d="M 143.4,27.2 143,42 h -5.8 l 1.1,-26.6 h 6 l 6.4,16.9 6.4,-16.9 h 6 l 1.1,26.6 h -5.8 L 158,27.2 153.4,38.5 H 148 Z"
   id="path7"
   style="fill:#e6e6e6" />
	<path
   d="m 188.8,15.4 v 18.8 c 0,4 -2.5,8.1 -10,8.1 -7.5,0 -10,-4.1 -10,-8.1 V 15.4 h 6 v 18.3 c 0,2.2 1,3.4 4,3.4 3,0 4,-1.2 4,-3.4 V 15.4 Z"
   id="path8"
   style="fill:#e6e6e6" />
	<path
   d="m 200,37 h 11.8 v 5 h -18.6 v -4.9 l 11.7,-16.8 h -11.2 v -4.9 h 17.9 v 4.9 z"
   id="path9"
   style="fill:#e6e6e6" />
	<path
   d="M 228,34.3 V 42 h -6 v -7.7 l -8.3,-18.9 h 6.3 l 5,12.3 5,-12.3 h 6.3 z"
   id="path10"
   style="fill:#e6e6e6" />
	<path
   d="m 243.6,33.3 c 0,2.3 0.8,3.7 3.7,3.7 1.9,0 4.5,-0.2 6.9,-0.6 l 0.8,5.2 c -2.6,0.6 -5,0.8 -7.7,0.8 -6.7,0 -9.7,-3.3 -9.7,-8.1 V 23.1 c 0,-4.8 3,-8.1 9.7,-8.1 2.7,0 5.1,0.3 7.7,0.8 l -0.8,5.2 c -2.3,-0.4 -4.9,-0.6 -6.9,-0.6 -3,0 -3.7,1.4 -3.7,3.7 z"
   id="path11"
   style="fill:#e6e6e6" />
	<path
   d="M 265.2,37 H 277 v 5 h -18.6 v -4.9 l 11.7,-16.8 h -11.2 v -4.9 h 17.9 v 4.9 z"
   id="path12"
   style="fill:#e6e6e6" />
	<path
   d="M 287.2,24.5 V 42 h -5.7 V 15.4 h 7.3 l 8.7,18.3 V 15.4 h 5.7 V 42 h -7.4 z"
   id="path13"
   style="fill:#e6e6e6" />
	<path
   d="M 320.1,34.3 V 42 h -6 v -7.7 l -8.3,-18.9 h 6.3 l 5,12.3 5,-12.3 h 6.3 z"
   id="path14"
   style="fill:#e6e6e6" />
</g>
<g
   id="g34"
   transform="translate(-14.2,-15)"
   style="fill:#e6e6e6">
	<path
   d="m 21.5,50.4 v -2 h 1.4 v 2 z m 0,9.4 v -8.1 h 1.4 v 8.1 z"
   id="path15"
   style="fill:#e6e6e6" />
	<path
   d="m 35.3,59.8 v -6.2 c 0,-0.5 -0.3,-0.7 -0.8,-0.7 -0.7,0 -1.8,0.4 -2.7,0.8 v 6.1 h -1.4 v -6.2 c 0,-0.5 -0.3,-0.7 -0.8,-0.7 -0.6,0 -1.8,0.4 -2.7,0.8 v 6.1 h -1.4 v -8.1 h 1.1 l 0.1,0.7 C 27.6,52 29,51.5 30,51.5 c 0.8,0 1.3,0.3 1.5,0.9 1,-0.5 2.3,-0.9 3.3,-0.9 1.3,0 1.8,0.8 1.8,2.1 v 6.2 z"
   id="path16"
   style="fill:#e6e6e6" />
	<path
   d="m 39.3,57.9 h 1.4 v 1.9 h -1.4 z"
   id="path17"
   style="fill:#e6e6e6" />
	<path
   d="m 51,48.7 c 2.7,0 3.6,1.4 3.6,3.2 v 4.7 c 0,1.8 -0.8,3.2 -3.6,3.2 H 47.1 V 48.7 Z m -2.4,9.8 H 51 c 1.7,0 2.2,-0.7 2.2,-2 V 52 c 0,-1.3 -0.5,-2 -2.2,-2 h -2.4 z"
   id="path18"
   style="fill:#e6e6e6" />
	<path
   d="m 62.7,59.8 h -1.2 l -0.1,-0.6 c -0.7,0.5 -1.6,0.8 -2.6,0.8 -1.5,0 -2.1,-0.9 -2.1,-2.3 0,-1.7 0.8,-2.3 2.5,-2.3 h 2.2 v -1.3 c 0,-1 -0.4,-1.4 -1.8,-1.4 -0.8,0 -1.8,0.1 -2.4,0.3 L 57,51.9 c 0.8,-0.2 1.8,-0.3 2.7,-0.3 2.3,0 3.1,0.9 3.1,2.6 v 5.6 z m -1.4,-3.3 h -2.1 c -0.9,0 -1.2,0.3 -1.2,1.1 0,0.8 0.1,1.2 1.1,1.2 0.7,0 1.5,-0.3 2.1,-0.7 v -1.6 z"
   id="path19"
   style="fill:#e6e6e6" />
	<path
   d="m 70.1,59.8 v -6.2 c 0,-0.5 -0.3,-0.7 -0.8,-0.7 -0.6,0 -1.8,0.4 -2.7,0.8 v 6.1 h -1.4 v -8.1 h 1.1 l 0.1,0.7 c 0.9,-0.4 2.3,-0.9 3.3,-0.9 1.3,0 1.8,0.8 1.8,2.1 v 6.2 z"
   id="path20"
   style="fill:#e6e6e6" />
	<path
   d="m 75.3,51.7 v 6.2 c 0,0.5 0.3,0.7 0.8,0.7 0.6,0 1.8,-0.4 2.7,-0.8 v -6.1 h 1.4 v 8.1 H 79.1 L 79,59.1 c -0.9,0.4 -2.3,0.9 -3.3,0.9 -1.3,0 -1.8,-0.8 -1.8,-2.1 v -6.2 z"
   id="path21"
   style="fill:#e6e6e6" />
	<path
   d="M 87.1,59.7 C 86.6,59.9 86,60 85.4,60 c -1.4,0 -2,-0.5 -2,-1.8 V 53 H 82 v -1.2 h 1.4 v -2 l 1.4,-0.2 v 2.2 h 2.3 L 87,52.9 h -2.2 v 5 c 0,0.6 0.1,0.9 0.8,0.9 0.4,0 0.8,-0.1 1.3,-0.2 z"
   id="path22"
   style="fill:#e6e6e6" />
	<path
   d="m 91.1,59.8 h -0.6 l -2.6,-8.1 h 1.4 l 2.2,7 2.2,-7 h 1.4 l -2.7,8.1 -1.1,3.3 H 90 Z"
   id="path23"
   style="fill:#e6e6e6" />
	<path
   d="M 100.2,59.8 V 48.7 h 4.3 c 1.7,0 2.6,0.8 2.6,2.2 v 1.3 c 0,0.8 -0.3,1.5 -1.3,1.8 1,0.2 1.6,0.8 1.6,2 v 1.3 c 0,1.5 -1.1,2.4 -2.7,2.4 h -4.5 z m 5.4,-8.8 c 0,-0.7 -0.4,-1 -1.3,-1 h -2.8 v 3.6 h 2.5 c 1.1,0 1.5,-0.5 1.5,-1.3 V 51 Z m 0.4,5.2 c 0,-0.9 -0.5,-1.4 -1.6,-1.4 h -2.8 v 3.8 h 2.9 c 1,0 1.5,-0.4 1.5,-1.3 z"
   id="path24"
   style="fill:#e6e6e6" />
	<path
   d="m 115.3,59.8 h -1.2 L 114,59.2 c -0.7,0.5 -1.6,0.8 -2.6,0.8 -1.5,0 -2.1,-0.9 -2.1,-2.3 0,-1.7 0.8,-2.3 2.5,-2.3 h 2.2 v -1.3 c 0,-1 -0.4,-1.4 -1.8,-1.4 -0.8,0 -1.8,0.1 -2.4,0.3 l -0.2,-1.1 c 0.8,-0.2 1.8,-0.3 2.7,-0.3 2.3,0 3.1,0.9 3.1,2.6 v 5.6 z m -1.4,-3.3 h -2.1 c -0.9,0 -1.2,0.3 -1.2,1.1 0,0.8 0.1,1.2 1.1,1.2 0.7,0 1.5,-0.3 2.1,-0.7 v -1.6 z"
   id="path25"
   style="fill:#e6e6e6" />
	<path
   d="m 117.5,54.2 c 0,-1.6 0.7,-2.6 2.6,-2.6 0.7,0 1.7,0.1 2.3,0.2 v -3.4 l 1.4,-0.2 v 11.6 h -1.2 l -0.1,-0.7 c -0.7,0.5 -1.6,0.9 -2.7,0.9 -1.6,0 -2.4,-0.8 -2.4,-2.5 v -3.3 z m 4.9,-1.2 c -0.7,-0.1 -1.7,-0.2 -2.2,-0.2 -0.9,0 -1.3,0.4 -1.3,1.4 v 3.3 c 0,0.8 0.3,1.2 1.2,1.2 0.8,0 1.7,-0.4 2.3,-1 z"
   id="path26"
   style="fill:#e6e6e6" />
	<path
   d="m 127.8,51.7 v 6.2 c 0,0.5 0.3,0.7 0.8,0.7 0.6,0 1.8,-0.4 2.7,-0.8 v -6.1 h 1.4 v 8.1 h -1.1 l -0.1,-0.7 c -0.9,0.4 -2.3,0.9 -3.3,0.9 -1.3,0 -1.8,-0.8 -1.8,-2.1 v -6.2 z"
   id="path27"
   style="fill:#e6e6e6" />
	<path
   d="m 137.6,60 c -0.8,0 -1.9,-0.2 -2.6,-0.4 l 0.2,-1.1 c 0.7,0.2 1.6,0.3 2.3,0.3 1.3,0 1.5,-0.2 1.5,-1.1 0,-0.9 -0.1,-1 -1.7,-1.4 -2,-0.5 -2.2,-0.9 -2.2,-2.6 0,-1.5 0.7,-2.2 2.8,-2.2 0.8,0 1.6,0.1 2.3,0.3 l -0.1,1.1 c -0.7,-0.1 -1.6,-0.2 -2.2,-0.2 -1.2,0 -1.4,0.3 -1.4,1 0,0.9 0,1.1 1.4,1.4 2.3,0.6 2.5,0.9 2.5,2.5 -0.1,1.6 -0.5,2.4 -2.8,2.4 z"
   id="path28"
   style="fill:#e6e6e6" />
	<path
   d="m 142.4,51.7 h 5.6 v 1.1 l -4.1,5.8 h 4.2 v 1.1 h -5.7 v -1.1 l 4.1,-5.8 h -4 v -1.1 z"
   id="path29"
   style="fill:#e6e6e6" />
	<path
   d="M 150.2,59.8 V 48.4 l 1.4,-0.2 v 11.6 z m 6.2,-8.1 -2.9,4 3,4.1 h -1.6 l -3,-4.1 2.9,-4 z"
   id="path30"
   style="fill:#e6e6e6" />
	<path
   d="m 161,60 c -2.4,0 -3.3,-1.3 -3.3,-3 v -2.3 c 0,-1.7 0.9,-3 3.3,-3 2.4,0 3.3,1.3 3.3,3 V 57 c 0,1.6 -0.9,3 -3.3,3 z m 0,-7.2 c -1.3,0 -1.9,0.6 -1.9,1.8 V 57 c 0,1.2 0.6,1.8 1.9,1.8 1.3,0 1.9,-0.6 1.9,-1.8 v -2.4 c 0,-1.2 -0.6,-1.8 -1.9,-1.8 z"
   id="path31"
   style="fill:#e6e6e6" />
	<path
   d="m 172.9,59.8 -2,-6.9 -2,6.9 h -1.8 l -1.7,-8.1 h 1.3 l 1.3,6.7 2,-6.7 h 1.7 l 2,6.7 1.3,-6.7 h 1.3 l -1.7,8.1 z"
   id="path32"
   style="fill:#e6e6e6" />
	<path
   d="m 181,58.8 c 0.8,0 1.7,-0.2 2.6,-0.4 l 0.2,1.1 c -0.8,0.3 -1.8,0.5 -2.9,0.5 -2.4,0 -3.2,-1.1 -3.2,-3 v -2.4 c 0,-1.7 0.8,-3 3.2,-3 2.4,0 3,1.4 3,3.1 v 1.7 h -4.8 V 57 c 0,1.3 0.3,1.8 1.9,1.8 z m -1.9,-3.7 h 3.5 v -0.7 c 0,-1.1 -0.4,-1.8 -1.7,-1.8 -1.3,0 -1.8,0.6 -1.8,1.8 z"
   id="path33"
   style="fill:#e6e6e6" />
	<path
   d="m 187.5,51.7 v 8.6 c 0,1.1 -0.1,1.3 -1.9,2.8 l -0.8,-1 c 1.3,-1.2 1.3,-1.3 1.3,-1.9 v -8.5 z m -1.4,-1.3 v -2 h 1.4 v 2 z"
   id="path34"
   style="fill:#e6e6e6" />
</g>
<g
   id="g40"
   transform="translate(-14.2,-15)"
   style="fill:#e6e6e6">
	<path
   d="M 234.9,64.7 231.6,53 228.3,64.7 h -3.1 l -2.9,-13.8 h 2.3 l 2.3,11.5 3.3,-11.5 h 2.9 l 3.3,11.5 2.3,-11.5 h 2.3 l -3,13.8 z"
   id="path35"
   style="fill:#e6e6e6" />
	<path
   d="m 251.9,59.3 c 0,2.4 0.7,3.5 4,3.5 1,0 2.3,-0.1 3.6,-0.3 V 56 h 2.4 v 8.2 c -1.9,0.5 -4.1,0.8 -6,0.8 -4.9,0 -6.3,-2.1 -6.3,-5.6 V 51 c 0,-3.9 1.9,-5.6 6.7,-5.6 1.6,0 3.5,0.2 5.3,0.6 l -0.3,2.1 c -1.8,-0.3 -3.5,-0.5 -5.1,-0.5 -3.1,0 -4.1,0.9 -4.1,3.5 v 8.2 z"
   id="path36"
   style="fill:#e6e6e6" />
	<path
   d="m 273.1,45.7 c 4.7,0 6.1,2.4 6.1,5.5 v 8.1 c 0,3 -1.5,5.5 -6.1,5.5 h -6.7 v -19 h 6.7 z m -4.2,16.8 h 4.1 c 2.9,0 3.7,-1.2 3.7,-3.4 v -7.8 c 0,-2.2 -0.9,-3.4 -3.7,-3.4 h -4.1 z"
   id="path37"
   style="fill:#e6e6e6" />
	<path
   d="M 293.4,45.7 H 296 L 289.6,59 v 5.7 h -2.5 V 59 l -6.3,-13.3 h 2.6 l 5,10.6 z"
   id="path38"
   style="fill:#e6e6e6" />
	<path
   d="m 301,48.5 v 16.2 h -2.3 v -19 h 3.4 L 310.4,62 V 45.7 h 2.3 v 19 h -3.4 z"
   id="path39"
   style="fill:#e6e6e6" />
	<path
   d="m 320.1,64.7 h -2.5 v -19 h 2.5 z"
   id="path40"
   style="fill:#e6e6e6" />
</g>
</svg>
